<?xml version="1.0" encoding="utf-8"?>
<!-- Generator: Adobe Illustrator 27.1.1, SVG Export Plug-In . SVG Version: 6.00 Build 0)  -->
<svg version="1.1" id="Layer_1" xmlns="http://www.w3.org/2000/svg" xmlns:xlink="http://www.w3.org/1999/xlink" x="0px" y="0px"
	 viewBox="0 0 188.2 188.2" style="enable-background:new 0 0 188.2 188.2;" xml:space="preserve">
<style type="text/css">
	.st0{clip-path:url(#SVGID_00000131354864560782830150000002418068414737019811_);fill:#FFFAF6;}
	.st1{opacity:5.000000e-02;clip-path:url(#SVGID_00000131354864560782830150000002418068414737019811_);fill:url(#);}
	.st2{clip-path:url(#SVGID_00000131354864560782830150000002418068414737019811_);fill:none;}
	.st3{clip-path:url(#SVGID_00000131354864560782830150000002418068414737019811_);}
	.st4{fill:#F6E1CE;}
	.st5{clip-path:url(#SVGID_00000054230187007928753340000006498706773644147340_);}
	.st6{fill:#D4B669;}
	.st7{fill:#8C0909;}
	.st8{opacity:0.63;fill:url(#);}
	.st9{fill:#FFF6F1;}
	.st10{fill:url(#SVGID_00000158025370796995404510000003449393964779000225_);}
	.st11{fill:url(#);stroke:#E4C084;stroke-miterlimit:10;}
	.st12{opacity:0.16;}
	.st13{fill:none;stroke:#C6815C;stroke-width:1.7688;stroke-linecap:round;stroke-linejoin:round;stroke-miterlimit:10;}
	.st14{opacity:0.1;}
	
		.st15{fill:none;stroke:url(#SVGID_00000118383686384646623000000002874518713541297335_);stroke-width:1.6667;stroke-linecap:round;stroke-linejoin:round;stroke-miterlimit:10;}
	
		.st16{fill:none;stroke:url(#SVGID_00000176005443436643079840000002514733265899330234_);stroke-width:1.6667;stroke-linecap:round;stroke-linejoin:round;stroke-miterlimit:10;}
	
		.st17{fill:none;stroke:url(#SVGID_00000090997818357585342830000002616147558045552057_);stroke-width:1.6667;stroke-linecap:round;stroke-linejoin:round;stroke-miterlimit:10;}
	
		.st18{fill:none;stroke:url(#SVGID_00000084499977569108345230000015514342021159272374_);stroke-width:1.6667;stroke-linecap:round;stroke-linejoin:round;stroke-miterlimit:10;}
	
		.st19{fill:none;stroke:url(#SVGID_00000090258937232340025390000003956925646809041318_);stroke-width:1.6667;stroke-linecap:round;stroke-linejoin:round;stroke-miterlimit:10;}
	
		.st20{fill:none;stroke:url(#SVGID_00000042728603763498329480000001458246662893361568_);stroke-width:1.6667;stroke-linecap:round;stroke-linejoin:round;stroke-miterlimit:10;}
	
		.st21{fill:none;stroke:url(#SVGID_00000051343769248934260120000005541047792464265639_);stroke-width:1.6667;stroke-linecap:round;stroke-linejoin:round;stroke-miterlimit:10;}
	
		.st22{fill:none;stroke:url(#SVGID_00000032640544168519424250000012823398258916670612_);stroke-width:1.6667;stroke-linecap:round;stroke-linejoin:round;stroke-miterlimit:10;}
	
		.st23{fill:none;stroke:url(#SVGID_00000027583693461023507840000000899972595202270096_);stroke-width:1.6667;stroke-linecap:round;stroke-linejoin:round;stroke-miterlimit:10;}
	
		.st24{fill:none;stroke:url(#SVGID_00000077323039022832857350000016172780500644456333_);stroke-width:1.6667;stroke-linecap:round;stroke-linejoin:round;stroke-miterlimit:10;}
	
		.st25{fill:none;stroke:url(#SVGID_00000137112677342527631670000005419150539801253560_);stroke-width:1.6667;stroke-linecap:round;stroke-linejoin:round;stroke-miterlimit:10;}
	
		.st26{fill:none;stroke:url(#SVGID_00000038371543022742841920000010293452716600951741_);stroke-width:1.6667;stroke-linecap:round;stroke-linejoin:round;stroke-miterlimit:10;}
	
		.st27{fill:none;stroke:url(#SVGID_00000005979881981356282690000016055335440818587064_);stroke-width:1.6667;stroke-linecap:round;stroke-linejoin:round;stroke-miterlimit:10;}
	.st28{fill:none;stroke:#8C0909;stroke-width:3.7626;stroke-linecap:round;stroke-linejoin:round;stroke-miterlimit:10;}
	.st29{fill:none;stroke:#8C0909;stroke-width:1.9358;stroke-linecap:round;stroke-linejoin:round;stroke-miterlimit:10;}
	.st30{fill:none;stroke:#C6815C;stroke-width:1.6667;stroke-linecap:round;stroke-linejoin:round;stroke-miterlimit:10;}
	.st31{clip-path:url(#SVGID_00000086664312778187001030000005310646531266398080_);fill:#FFFAF6;}
	.st32{opacity:5.000000e-02;clip-path:url(#SVGID_00000086664312778187001030000005310646531266398080_);fill:url(#);}
	.st33{fill:#FFFAF6;}
	.st34{opacity:0.55;fill:url(#);}
	.st35{fill:none;}
	.st36{fill:url(#SVGID_00000004534729221523688270000010763391275100230320_);}
	.st37{fill:url(#SVGID_00000090273096348787144310000001436434613706401186_);}
	.st38{fill:url(#SVGID_00000026122715626467107470000002313758253210206382_);}
	.st39{fill:url(#SVGID_00000148627775726614939330000014968336010131311791_);}
	.st40{fill:url(#SVGID_00000029745644026343263590000006198141025698147502_);}
	.st41{fill:url(#SVGID_00000075867505246341835500000005050696763034403497_);}
	.st42{fill:url(#SVGID_00000052090062218884698160000007514621208831691403_);}
	.st43{fill:url(#SVGID_00000129172325693571217640000010591631499690548368_);}
	.st44{fill:url(#SVGID_00000083777865854462203450000001713376897762664087_);}
	.st45{fill:url(#SVGID_00000140715099577385342320000017251369000890384772_);}
	.st46{fill:url(#SVGID_00000097476522611456102530000014408609379408600759_);}
	.st47{fill:url(#SVGID_00000003819822960619963950000010819983260476224395_);}
	.st48{fill:url(#SVGID_00000106833078202237901560000014945233112872275344_);}
	.st49{fill:url(#SVGID_00000123425016365146117130000015529053072011427243_);}
	.st50{fill:url(#SVGID_00000151501993822457170090000009874282935692843665_);}
	.st51{fill:url(#SVGID_00000021815195938255926680000002187896113569737092_);}
	.st52{fill:url(#SVGID_00000088821737402071772630000004956336551100804226_);}
	.st53{fill:url(#SVGID_00000149344828611392148880000009563236754597781128_);}
	.st54{fill:url(#SVGID_00000001659498341321116380000009444610019733902473_);}
	.st55{fill:url(#SVGID_00000100344382555530266270000007661572122173728163_);}
	.st56{fill:url(#SVGID_00000159466232379649242230000014057705199326842281_);}
	.st57{fill:url(#SVGID_00000029039191428291671490000012128438346829159342_);}
	.st58{fill:url(#SVGID_00000088855784375882585890000015490072521884245403_);}
	.st59{fill:url(#SVGID_00000033353010481130019690000009215723704494419358_);}
	.st60{fill:url(#SVGID_00000004529254037566486940000005705129952476844721_);}
	.st61{fill:url(#SVGID_00000087373016847948114290000009895630934980076437_);}
	.st62{fill:url(#SVGID_00000109013992914998550540000017253145568314143406_);}
	.st63{fill:url(#SVGID_00000168087377691156985160000009608271042055305872_);}
	.st64{fill:url(#SVGID_00000010285254306098259470000006027037523605850764_);}
	.st65{fill:url(#SVGID_00000165225519503626250780000004349658408383609728_);}
	.st66{fill:url(#SVGID_00000093862039891254792770000017535751611599668653_);}
	.st67{fill:url(#SVGID_00000095318282104585668960000009310517662808625825_);}
	.st68{fill:url(#SVGID_00000113339197602411579320000009227812057432132025_);}
	.st69{fill:url(#SVGID_00000067941478942299247620000015326081961019807641_);}
	.st70{fill:url(#SVGID_00000127733096485064597540000015852435647327649449_);}
	.st71{fill:url(#SVGID_00000119076550729439230510000016103677584815814024_);}
	.st72{fill:url(#SVGID_00000105398473756195079380000000071908086461288620_);}
	.st73{fill:url(#SVGID_00000018227984376983539730000017654880596627144323_);}
	.st74{fill:url(#SVGID_00000167374299152646375170000004457374667055108524_);}
	.st75{fill:url(#SVGID_00000043458630076954958980000008142887374661244848_);}
	.st76{fill:url(#SVGID_00000168076136168387762430000008550751095750637956_);}
	.st77{fill:url(#SVGID_00000155854472342806703630000015706313926719166343_);}
	.st78{fill:url(#SVGID_00000093887859851314324580000017394361858532364216_);}
	.st79{opacity:0.5;}
	.st80{fill:#C6815C;}
	
		.st81{fill:none;stroke:url(#SVGID_00000116207725467035790620000007054508621234343605_);stroke-width:1.6667;stroke-linecap:round;stroke-linejoin:round;stroke-miterlimit:10;}
	
		.st82{fill:none;stroke:url(#SVGID_00000112604396578114686770000002682382373434254730_);stroke-width:1.6667;stroke-linecap:round;stroke-linejoin:round;stroke-miterlimit:10;}
	
		.st83{fill:none;stroke:url(#SVGID_00000028295650271088479020000009556947981789843106_);stroke-width:1.6667;stroke-linecap:round;stroke-linejoin:round;stroke-miterlimit:10;}
	
		.st84{fill:none;stroke:url(#SVGID_00000120555404051246705370000004486025910081519802_);stroke-width:1.6667;stroke-linecap:round;stroke-linejoin:round;stroke-miterlimit:10;}
	
		.st85{fill:none;stroke:url(#SVGID_00000040556096903682903030000013304751938539698094_);stroke-width:1.6667;stroke-linecap:round;stroke-linejoin:round;stroke-miterlimit:10;}
	
		.st86{fill:none;stroke:url(#SVGID_00000023271057387884994110000012553121672591852939_);stroke-width:1.6667;stroke-linecap:round;stroke-linejoin:round;stroke-miterlimit:10;}
	
		.st87{fill:none;stroke:url(#SVGID_00000183938645494170070290000004907583876752203448_);stroke-width:1.6667;stroke-linecap:round;stroke-linejoin:round;stroke-miterlimit:10;}
	
		.st88{fill:none;stroke:url(#SVGID_00000177479257156517220850000010177567696882011271_);stroke-width:1.6667;stroke-linecap:round;stroke-linejoin:round;stroke-miterlimit:10;}
	
		.st89{fill:none;stroke:url(#SVGID_00000062875478489558158980000011432109416157665163_);stroke-width:1.6667;stroke-linecap:round;stroke-linejoin:round;stroke-miterlimit:10;}
	
		.st90{fill:none;stroke:url(#SVGID_00000142875996404861466500000007493667913403825566_);stroke-width:1.6667;stroke-linecap:round;stroke-linejoin:round;stroke-miterlimit:10;}
	
		.st91{fill:none;stroke:url(#SVGID_00000062150456626262533350000015807441879371358399_);stroke-width:1.6667;stroke-linecap:round;stroke-linejoin:round;stroke-miterlimit:10;}
	
		.st92{fill:none;stroke:url(#SVGID_00000075122384209148713350000006112218876663228583_);stroke-width:1.6667;stroke-linecap:round;stroke-linejoin:round;stroke-miterlimit:10;}
	
		.st93{fill:none;stroke:url(#SVGID_00000145763553051107801360000003137243981695725490_);stroke-width:1.6667;stroke-linecap:round;stroke-linejoin:round;stroke-miterlimit:10;}
	.st94{fill:none;stroke:#C6815C;stroke-width:1.3779;stroke-linecap:round;stroke-linejoin:round;stroke-miterlimit:10;}
	.st95{fill:none;stroke:#8C0909;stroke-miterlimit:10;}
	.st96{opacity:0.6;clip-path:url(#SVGID_00000133494250538139192040000010526439622909585322_);fill:#ECE5DF;}
	.st97{opacity:5.000000e-02;clip-path:url(#SVGID_00000133494250538139192040000010526439622909585322_);fill:url(#);}
	.st98{clip-path:url(#SVGID_00000133494250538139192040000010526439622909585322_);}
	.st99{opacity:0.39;}
	.st100{fill:#E4C084;}
	.st101{clip-path:url(#SVGID_00000133494250538139192040000010526439622909585322_);fill:none;}
	.st102{clip-path:url(#SVGID_00000030483046782480309020000003828296036439335092_);}
	.st103{opacity:0.6;clip-path:url(#SVGID_00000030483046782480309020000003828296036439335092_);fill:#ECE5DF;}
	.st104{opacity:5.000000e-02;clip-path:url(#SVGID_00000030483046782480309020000003828296036439335092_);fill:url(#);}
	.st105{clip-path:url(#SVGID_00000030483046782480309020000003828296036439335092_);fill:none;}
	.st106{fill:none;stroke:#CAA84A;stroke-width:0.8781;stroke-miterlimit:10;}
	.st107{fill:#F4F1EC;}
	.st108{fill:#ECE5DF;}
	.st109{fill:#191919;}
	.st110{fill:url(#SVGID_00000106146253390599130220000005991417473238878862_);}
	.st111{filter:url(#Adobe_OpacityMaskFilter);}
	.st112{filter:url(#Adobe_OpacityMaskFilter_00000129918209790639261490000016061454131353425829_);}
	
		.st113{mask:url(#SVGID_00000018946506519510623490000008109485647097891990_);fill:url(#SVGID_00000114035157495751136020000000885943820796528259_);}
	.st114{fill:#FFFFFF;}
	.st115{fill:url(#SVGID_00000002374781337154838090000014553104453555804041_);}
	.st116{fill:url(#SVGID_00000176042230759877991600000004321878812185257650_);}
	.st117{fill:url(#SVGID_00000003800637186675584900000002351925491384580284_);}
	.st118{fill:url(#SVGID_00000026860037662650803940000012219514270258802082_);}
	.st119{fill:url(#SVGID_00000062160387995552693370000014025486097113576595_);}
	.st120{fill:url(#SVGID_00000102517673418765572570000011477281106973441687_);}
	.st121{fill:url(#SVGID_00000068666187475371480130000012557856821506145713_);}
	.st122{fill:url(#SVGID_00000179624098088276255440000015236653960042308754_);}
	.st123{fill:url(#SVGID_00000172440082173693841860000008297172547229943684_);}
	.st124{fill:url(#SVGID_00000101788227780935470850000005048046804130085791_);}
	.st125{fill:url(#SVGID_00000140713528391360033070000009158386475681254569_);}
	.st126{fill:url(#SVGID_00000042708056105188746990000013350070040592123042_);}
	.st127{fill:url(#SVGID_00000168801406858904751950000014588137672929028000_);}
	.st128{fill:url(#SVGID_00000090286752051212746440000017140546197762423187_);}
	.st129{fill:url(#SVGID_00000016051468717451781810000007092055669696319371_);}
	.st130{fill:url(#SVGID_00000176759472186602004770000001850250676609782439_);}
	.st131{fill:url(#SVGID_00000160869837530403451550000005635449559699052974_);}
	.st132{fill:url(#SVGID_00000132088674231228968020000015324083940786550696_);}
	.st133{fill:url(#SVGID_00000144326016490370031390000004985770401685009565_);}
	.st134{fill:url(#SVGID_00000081623412898807023040000000683605878780749188_);}
	.st135{fill:url(#SVGID_00000039125546058926222370000012673346025597806221_);}
	.st136{fill:url(#SVGID_00000134959968226694923060000009620968010939710613_);}
	.st137{fill:url(#SVGID_00000024716199469313407430000006231325749503856792_);}
	.st138{fill:url(#SVGID_00000010269686654373744410000018370380881976192701_);}
	.st139{fill:url(#SVGID_00000072267292789476826180000013369752868548870799_);}
	.st140{fill:url(#SVGID_00000078041941783778021360000007374949745524925102_);}
	.st141{fill:url(#SVGID_00000119082624165482508040000017021990776707530406_);}
	.st142{fill:url(#SVGID_00000152248714638586017070000013996486622897296769_);}
	.st143{fill:url(#SVGID_00000082367537535575388930000011685942709495176634_);}
	.st144{fill:url(#SVGID_00000119119280969847577590000016810670504608001686_);}
	.st145{fill:url(#SVGID_00000118355938339154399720000005953394364179005351_);}
	.st146{fill:url(#SVGID_00000173839779416141300890000000176591691100281738_);}
	.st147{fill:url(#SVGID_00000163057551872473021480000001999019733725633183_);}
	.st148{fill:url(#SVGID_00000096019993315425693030000007120509782416470446_);}
	.st149{fill:url(#SVGID_00000096756997368512273440000017792185672362166658_);}
	.st150{fill:url(#SVGID_00000010295422827317725300000016533119058738570429_);}
	.st151{fill:url(#SVGID_00000119800674834089230610000016052446171128221375_);}
	.st152{fill:url(#SVGID_00000013155255477760333490000015938125895512792482_);}
	.st153{fill:url(#SVGID_00000153679435495988677920000001281114121357513115_);}
	.st154{fill:url(#SVGID_00000043429490615701483830000005528445587455839145_);}
	.st155{fill:url(#SVGID_00000041292385107688750940000001447622489361940910_);}
	.st156{fill:url(#SVGID_00000102538697277387717290000002756604471498776252_);}
	.st157{fill:url(#SVGID_00000117661314865266811160000006769464714636706984_);}
	.st158{fill:url(#SVGID_00000006674211643879543510000002964152406443050150_);}
	.st159{fill:url(#SVGID_00000141428270012701774430000006917157648786452616_);}
	.st160{fill:url(#SVGID_00000121242932849897692280000011026098151004750522_);}
	.st161{fill:url(#SVGID_00000158019717293349105160000013131468818098305203_);}
	.st162{fill:url(#SVGID_00000142887401764887478420000017249695918538721674_);}
	.st163{fill:url(#SVGID_00000119104351822366324480000016501466959313989513_);}
	.st164{fill:url(#SVGID_00000037666304126360549910000001216234959930602397_);}
	.st165{fill:url(#SVGID_00000125573396692291468370000014640617933470056888_);}
	.st166{fill:url(#SVGID_00000031900286586097774180000016344990632137450908_);}
	.st167{fill:url(#SVGID_00000136385350908293459330000014471048567097137299_);}
	.st168{fill:url(#SVGID_00000038412332821349627880000011065071507169349821_);}
	.st169{fill:url(#SVGID_00000040577274308508725060000010991595573420141451_);}
	.st170{fill:url(#SVGID_00000162351567581774200750000006948998098485368724_);}
	.st171{fill:url(#SVGID_00000106126985460965810390000002582637305942972594_);}
	.st172{fill:url(#SVGID_00000079478857195953232540000012873386680752751520_);}
	.st173{fill:url(#SVGID_00000067232902673629285800000011202597659229836421_);}
	.st174{fill:url(#SVGID_00000078723124260645707110000011241396203428358836_);}
	.st175{fill:url(#SVGID_00000139981531969558367810000001036243042721308603_);}
	.st176{fill:url(#SVGID_00000158020168484007555930000000099086192725841562_);}
	.st177{fill:url(#SVGID_00000011751376138321722700000006866234533968960697_);}
	.st178{fill:url(#SVGID_00000065783645893715401110000017297264647976113577_);}
	.st179{fill:url(#SVGID_00000013907317325218698290000000916279573456669826_);}
	.st180{fill:url(#SVGID_00000062158991643670449290000017973335156750708379_);}
	.st181{fill:url(#SVGID_00000026875933532513849820000001316845318589369506_);}
	.st182{fill:url(#SVGID_00000091013474371724877190000003447403857351282585_);}
	.st183{fill:url(#SVGID_00000005259694678921714520000004044260801993926030_);}
	.st184{fill:url(#SVGID_00000054966774183273443300000000821248883043179682_);}
	.st185{fill:url(#SVGID_00000050622475422319016760000000161715542203201195_);}
	.st186{fill:url(#SVGID_00000180331866791656414640000005446055651460704128_);}
	.st187{fill:url(#SVGID_00000082338071536395574190000000007292829341618319_);}
	.st188{fill:url(#SVGID_00000183214556665761579660000001734263570914244255_);}
	.st189{fill:url(#SVGID_00000080891931967654415610000016897128923850388153_);}
	.st190{fill:url(#SVGID_00000170965127241707347160000008973880897124674963_);}
	.st191{fill:url(#SVGID_00000092424682202536452470000006908745814467943869_);}
	.st192{fill:url(#SVGID_00000181047998203101161490000002172019379300687801_);}
	.st193{fill:url(#SVGID_00000165209117109560630900000001500880700497660319_);}
	.st194{fill:url(#SVGID_00000124134104274236931050000016435999036869122459_);}
	.st195{fill:url(#SVGID_00000128468544601731787100000004721553855360515499_);}
	.st196{fill:url(#SVGID_00000109027619337707360520000016510102545689416120_);}
	.st197{fill:url(#SVGID_00000054227537936701836220000016633914812581871546_);}
	.st198{fill:url(#SVGID_00000168812666716781027340000003433267999736644520_);}
	.st199{fill:url(#SVGID_00000102531238782420850810000008571579796675638935_);}
	.st200{fill:url(#SVGID_00000080192888082655086060000008344872439986262955_);}
	.st201{fill:url(#SVGID_00000065044960366061436940000013139782577969669271_);}
	.st202{fill:url(#SVGID_00000116208142875741533870000010204856632758190496_);}
	.st203{fill:url(#SVGID_00000058555832358325387260000012992201903477671562_);}
	.st204{fill:url(#SVGID_00000090997463817652873830000009356630532881915293_);}
	.st205{fill:url(#SVGID_00000022550319773036842990000010370160428736202165_);}
	.st206{fill:url(#SVGID_00000003798328171295935790000002350751579473223332_);}
	.st207{fill:url(#SVGID_00000018959759855677473320000003306905542219591578_);}
	.st208{fill:url(#SVGID_00000139972987454204954530000011179534890708225949_);}
	.st209{fill:url(#SVGID_00000134207663222460229120000001818357233272960907_);}
	.st210{fill:url(#SVGID_00000127757910760356911090000012857107196831055540_);}
	.st211{fill:url(#SVGID_00000093164465323440981930000013818550383140917649_);}
	.st212{fill:url(#SVGID_00000082350152735750336110000012695221999023452045_);}
	.st213{fill:url(#SVGID_00000079462536795972051570000008610674182010857660_);}
	.st214{fill:url(#SVGID_00000058582781131428247660000008112693194860439210_);}
	.st215{fill:url(#SVGID_00000065036671999799106340000015461211939644029103_);}
	.st216{fill:url(#SVGID_00000114780448940127471850000007283540349186650007_);}
	.st217{fill:url(#SVGID_00000054261623141569496420000017819521280740826030_);}
	.st218{fill:url(#SVGID_00000094597101257222557640000014095421111461055104_);}
	.st219{fill:url(#SVGID_00000127004361685418881650000013530284921737874106_);}
	.st220{fill:url(#SVGID_00000030465119341271625130000003419701631909114264_);}
	.st221{fill:url(#SVGID_00000125568324295676121250000001334593296384266882_);}
	.st222{fill:url(#SVGID_00000055702626811549497330000013856052062773133961_);}
	.st223{fill:url(#SVGID_00000080916076537041783420000011031437915876481678_);}
	.st224{fill:url(#SVGID_00000009551519944480489610000010204968316334334873_);}
	.st225{fill:url(#SVGID_00000112617694344786279660000008329582873455319192_);}
	.st226{fill:url(#SVGID_00000144304583575210435410000003049955826673503129_);}
	.st227{fill:url(#SVGID_00000131350974218657750100000017431794402194030241_);}
	.st228{fill:url(#SVGID_00000176764082014284104720000003398607359803977113_);}
	.st229{fill:url(#SVGID_00000011716561388709421760000006807566226953935801_);}
	.st230{fill:url(#SVGID_00000024709893075471781050000017587027603258313652_);}
	.st231{fill:url(#SVGID_00000121248452497080577110000013655981968072511880_);}
	.st232{fill:url(#SVGID_00000163783802267480417580000018214619574883934864_);}
	.st233{fill:url(#SVGID_00000014631634906983560020000008639870250673928852_);}
	.st234{fill:url(#SVGID_00000049187973273297707470000010491908687020746381_);}
	.st235{fill:url(#SVGID_00000162345922263058759750000015433977929980354457_);}
	.st236{fill:url(#SVGID_00000006671871562027063700000001924630976282808232_);}
	.st237{fill:url(#SVGID_00000052807590512894631500000014121916267512147131_);}
	.st238{fill:url(#SVGID_00000088133682925701340070000010037016430927054986_);}
	.st239{fill:url(#SVGID_00000065034181870298670530000006670145931016196286_);}
	.st240{fill:url(#SVGID_00000183935328080782619540000016507118724637609123_);}
	.st241{fill:url(#SVGID_00000109028831395061781920000002761624719142086292_);}
	.st242{fill:url(#SVGID_00000158010616064909225400000017679159703143610802_);}
	.st243{fill:url(#SVGID_00000120550808583896590470000003458644611151342469_);}
	.st244{fill:url(#SVGID_00000124850897930566404920000006494979874468822445_);}
	.st245{fill:url(#SVGID_00000173875058143964758840000018014264502391752104_);}
	.st246{fill:url(#SVGID_00000036942251509891586480000009458067862356617601_);}
	.st247{fill:url(#SVGID_00000121997707722527205250000010987917949044678079_);}
	.st248{fill:url(#SVGID_00000043457720448456463220000014969778388252142998_);}
	.st249{fill:url(#SVGID_00000058557294343418829270000017852146465049358469_);}
	.st250{fill:url(#SVGID_00000044144377218491468740000013745537923707128193_);}
	.st251{fill:url(#SVGID_00000056398650340404247890000002230015900403357862_);}
	.st252{fill:url(#SVGID_00000097480144567968635610000018092456356609111948_);}
	.st253{fill:url(#SVGID_00000092448442640447423210000012134416871580199317_);}
	.st254{fill:url(#SVGID_00000151527291733745241470000003449414640176376728_);}
	.st255{fill:url(#SVGID_00000111182790688476093090000014316130088738860450_);}
	.st256{fill:url(#SVGID_00000181800469282613073660000008328304106329917312_);}
	.st257{fill:url(#SVGID_00000022543425132820357470000001237534140352974468_);}
	.st258{fill:url(#SVGID_00000004522441883842603140000017801233841833985176_);}
	.st259{fill:url(#SVGID_00000003785776391708338250000012322840516663853729_);}
	.st260{fill:url(#SVGID_00000075164709445177864240000008454420439795705234_);}
	.st261{fill:url(#SVGID_00000021077470024804312740000002639254909583396523_);}
	.st262{fill:url(#SVGID_00000096753093899298468110000008881072869613346732_);}
	.st263{fill:url(#SVGID_00000065044701413818408080000012741517315738430387_);}
	.st264{fill:url(#SVGID_00000104670841803655679540000000231654734974503095_);}
	.st265{fill:url(#SVGID_00000174583530777239496190000004919226668309235130_);}
	.st266{fill:url(#SVGID_00000156584553663258708160000011792939515968338051_);}
	.st267{fill:url(#SVGID_00000054244185575083438430000000666020343954189471_);}
	.st268{fill:url(#SVGID_00000062874099872150593150000012671499498211416243_);}
	.st269{fill:url(#SVGID_00000033351553222807401140000011279115815980567174_);}
	.st270{fill:url(#SVGID_00000135681449330105590380000004812724491510773925_);}
	.st271{fill:url(#SVGID_00000026158590410121713350000018255356234428694962_);}
	.st272{fill:url(#SVGID_00000074437373740187636820000011062757818855954848_);}
	.st273{fill:url(#SVGID_00000166633715422564474800000002534229118102055096_);}
	.st274{fill:url(#SVGID_00000028291338241301208850000017939003794169120185_);}
	.st275{fill:url(#SVGID_00000070118392060654600630000016862166642721751936_);}
	.st276{fill:url(#SVGID_00000135675549953764940120000000717042214641745310_);}
	.st277{fill:url(#SVGID_00000049944575438224032950000017502288445235067529_);}
	.st278{fill:url(#SVGID_00000108292288749582118970000016460902559895858091_);}
	.st279{fill:url(#SVGID_00000042698641957557606920000011993886304588674440_);}
	.st280{fill:url(#SVGID_00000106843054028718098240000012293215907080861328_);}
	.st281{fill:url(#SVGID_00000034797720475243888220000013435502733242058373_);}
	.st282{fill:url(#SVGID_00000037666795170574839070000005997220157705038253_);}
	.st283{fill:url(#SVGID_00000012457240128369399520000011824126349794551731_);}
	.st284{fill:url(#SVGID_00000056426933796547762480000001127727326730601351_);}
	.st285{fill:url(#SVGID_00000136384202589786631590000003472320450407879575_);}
	.st286{fill:url(#SVGID_00000152955382596735152360000005938274741009833390_);}
	.st287{fill:url(#SVGID_00000137129162090276729940000013103471648557884602_);}
	.st288{fill:url(#SVGID_00000108298378911207871220000018211975955967095425_);}
	.st289{fill:url(#SVGID_00000163072081934946443420000010194742274807256706_);}
	.st290{fill:url(#SVGID_00000054960877733860528030000006110590350048413626_);}
	.st291{fill:url(#SVGID_00000145752636954826673130000005053880113455261624_);}
	.st292{fill:url(#SVGID_00000147929321247001910460000005782483565993232513_);}
	.st293{fill:url(#SVGID_00000095320068312833708610000011905898811913448834_);}
	.st294{fill:url(#SVGID_00000043452703943198119840000004180522992549826213_);}
	.st295{fill:url(#SVGID_00000071531730276168022810000012999208031491503492_);}
	.st296{fill:url(#SVGID_00000121966675678564175790000008392280379446167172_);}
	.st297{fill:url(#SVGID_00000106853304924169525330000002577031907325651131_);}
	.st298{fill:url(#SVGID_00000072276147798227342100000010341075027135980462_);}
	.st299{fill:url(#SVGID_00000101063936583465735220000016069814033111955852_);}
	.st300{fill:url(#SVGID_00000168105470397462051780000009892850776326802612_);}
	.st301{fill:url(#SVGID_00000121263941204712343750000007998576823343335819_);}
	.st302{fill:url(#SVGID_00000053530772060423664130000015439648414637478813_);}
	.st303{fill:url(#SVGID_00000176748358150214623280000008268874161791974827_);}
	.st304{fill:url(#SVGID_00000168114075227786831420000012561776144882347146_);}
	.st305{fill:url(#SVGID_00000143575426592464270010000006126281160424461501_);}
	.st306{fill:url(#SVGID_00000029011673479211059370000011728017477206483338_);}
	.st307{fill:url(#SVGID_00000018226633983381612530000013559602299320080053_);}
	.st308{fill:url(#SVGID_00000025428490097452225150000015589572668946253727_);}
	.st309{fill:url(#SVGID_00000014604187143864463760000012572425479400251022_);}
	.st310{fill:url(#SVGID_00000170986648559898185010000005509279160718756784_);}
	.st311{fill:url(#SVGID_00000093862202423530337150000006458890107831323823_);}
	.st312{fill:url(#SVGID_00000134207363446018327040000007447730127719577274_);}
	.st313{fill:url(#SVGID_00000179628821695892382540000006272059179294679220_);}
	.st314{fill:url(#SVGID_00000052068786232856592870000015610212219683307179_);}
	.st315{fill:url(#SVGID_00000135683028033659816990000006984896597890471869_);}
	.st316{fill:url(#SVGID_00000108996120448154180810000014379641020360077993_);}
	.st317{fill:url(#SVGID_00000093157669323367374530000011111024836395240371_);}
	.st318{fill:url(#SVGID_00000114039552881561903620000014931626756989745059_);}
	.st319{fill:url(#SVGID_00000148630396253087132790000004290113975004113301_);}
	.st320{fill:url(#SVGID_00000161599042406860071220000008014065389135801761_);}
	.st321{fill:url(#SVGID_00000031204190778431919920000005910045334442956469_);}
	.st322{fill:url(#SVGID_00000094602203908326733800000015414713262121355921_);}
	.st323{fill:url(#SVGID_00000158711748537342648540000009920768680845396613_);}
	.st324{fill:url(#SVGID_00000182494148551473702240000001624971127107238283_);}
	.st325{opacity:0.15;fill:url(#);}
	.st326{fill:#111114;}
	.st327{opacity:0.88;fill:#8C0909;}
	.st328{fill:#EC2826;}
	.st329{opacity:0.6;fill:#ECE5DF;}
	.st330{fill:#EC2826;stroke:#000000;stroke-miterlimit:10;}
	.st331{fill:#FAAF1A;stroke:#000000;stroke-miterlimit:10;}
	.st332{fill:#0C0C0C;stroke:#000000;stroke-miterlimit:10;}
	.st333{fill:#8C0909;stroke:#000000;stroke-miterlimit:10;}
	.st334{fill:#D4B669;stroke:#000000;stroke-miterlimit:10;}
	.st335{fill:#FFF6F1;stroke:#000000;stroke-miterlimit:10;}
	.st336{fill:#EFEBE8;stroke:#000000;stroke-miterlimit:10;}
</style>
<g class="st79">
	<g>
		<path class="st80" d="M94.1,135c-22.6,0-40.9-18.4-40.9-40.9s18.4-40.9,40.9-40.9S135,71.5,135,94.1S116.7,135,94.1,135z
			 M94.1,54.9C72.5,54.9,55,72.5,55,94.1s17.6,39.1,39.1,39.1s39.1-17.6,39.1-39.1S115.7,54.9,94.1,54.9z"/>
		<g>
			<g>
				<g>
					<path class="st80" d="M99.6,55.3c0,0-0.1,0-0.1,0c-3.7-0.5-7.2-0.5-10.8,0c-0.3,0-0.5,0-0.7-0.2c-0.2-0.2-0.3-0.4-0.3-0.7
						c0.6-15,2-30.1,4.2-44.8l1.3-8.8C93.3,0.3,93.7,0,94.1,0s0.8,0.3,0.9,0.8l1.3,8.8c2.2,14.7,3.6,29.8,4.2,44.8
						c0,0.3-0.1,0.5-0.3,0.7C100.1,55.3,99.8,55.3,99.6,55.3z M94.1,53.2c1.5,0,3,0.1,4.6,0.3c-0.6-14.6-2-29.3-4.2-43.6l-0.4-3
						l-0.4,3c-2.1,14.3-3.5,29-4.2,43.6C91.1,53.3,92.6,53.2,94.1,53.2z"/>
					<path class="st80" d="M94.1,188.2c-0.4,0-0.8-0.3-0.9-0.8l-1.3-8.8c-2.2-14.7-3.6-29.8-4.2-44.8c0-0.3,0.1-0.5,0.3-0.7
						c0.2-0.2,0.5-0.3,0.7-0.2c3.7,0.5,7.2,0.5,10.8,0c0.3,0,0.5,0,0.7,0.2c0.2,0.2,0.3,0.4,0.3,0.7c-0.6,15-2,30.1-4.2,44.8
						l-1.3,8.8C94.9,187.9,94.5,188.2,94.1,188.2z M89.5,134.8c0.6,14.6,2,29.3,4.2,43.6l0.4,3l0.4-3c2.1-14.3,3.5-29,4.2-43.6
						C95.6,135.1,92.6,135.1,89.5,134.8z"/>
				</g>
				<g>
					<path class="st80" d="M133.8,100.5c-0.2,0-0.5-0.1-0.7-0.3c-0.2-0.2-0.3-0.5-0.2-0.7c0.3-1.8,0.4-3.6,0.4-5.4s-0.1-3.6-0.4-5.4
						c0-0.3,0-0.5,0.2-0.7c0.2-0.2,0.4-0.3,0.7-0.3c15,0.6,30.1,2,44.8,4.2l8.8,1.3c0.4,0.1,0.8,0.4,0.8,0.9s-0.3,0.8-0.8,0.9
						l-8.8,1.3C163.9,98.5,148.8,99.9,133.8,100.5C133.8,100.5,133.8,100.5,133.8,100.5z M134.8,89.5c0.2,1.6,0.3,3.1,0.3,4.6
						s-0.1,3-0.3,4.6c14.6-0.6,29.3-2,43.6-4.2l3-0.4l-3-0.5C164,91.5,149.4,90.1,134.8,89.5z"/>
					<path class="st80" d="M54.5,100.5C54.4,100.5,54.4,100.5,54.5,100.5c-15.1-0.6-30.1-2-44.9-4.2L0.8,95C0.3,94.9,0,94.5,0,94.1
						s0.3-0.8,0.8-0.9l8.8-1.3c14.7-2.2,29.8-3.6,44.8-4.2c0.3,0,0.5,0.1,0.7,0.3c0.2,0.2,0.3,0.5,0.2,0.7c-0.3,1.8-0.4,3.6-0.4,5.4
						c0,1.8,0.1,3.6,0.4,5.4c0,0.3,0,0.5-0.2,0.7C54.9,100.4,54.7,100.5,54.5,100.5z M6.9,94.1l3,0.5c14.3,2.1,29,3.5,43.6,4.2
						c-0.2-1.6-0.3-3.1-0.3-4.6c0-1.5,0.1-3,0.3-4.6c-14.6,0.6-29.3,2-43.6,4.2L6.9,94.1z"/>
				</g>
			</g>
			<g>
				<g>
					<path class="st80" d="M69.4,63.5c-0.3,0-0.5-0.1-0.7-0.3c-0.2-0.3-0.3-0.7-0.1-1c0,0,1.6-2.5,1.6-6.5c0-4.6-3.9-8.7-7.9-13
						c-3.5-3.7-2.9-8.7-2.3-13.1c0.2-1.4,0.3-2.7,0.4-3.9c0.2-7-6.2-11.3-6.3-11.4c-0.3-0.2-0.5-0.6-0.4-1c0.1-0.4,0.4-0.6,0.8-0.6
						c0.1,0,0.3,0,0.4,0c8.5,0,10.4,9,11.6,14.9c1.1,5.4,6.1,11.3,11.9,14.1l0,0c7.4,3.5,11.1,12.5,11.1,12.9c0,0.4-0.3,0.8-0.8,0.9
						c-6.8,0.9-13.3,3.7-18.8,8c-0.1,0-0.1,0.1-0.2,0.1C69.6,63.5,69.5,63.5,69.4,63.5z M57.3,14.7c2.1,2.1,4.9,5.9,4.7,10.9
						c0,1.3-0.2,2.7-0.4,4.1c-0.5,4.2-1,8.5,1.9,11.6c4.3,4.6,8.4,9,8.4,14.3c0,1.8-0.3,3.3-0.6,4.5c4.8-3.2,10.3-5.4,16-6.4
						c-1.1-2.3-4.3-8-9.7-10.6l0,0c-6.2-3-11.6-9.4-12.9-15.3C63.7,22.9,62.3,16.3,57.3,14.7z"/>
					<path class="st80" d="M118.9,63.5c-0.1,0-0.2,0-0.3-0.1c-0.1,0-0.2-0.1-0.2-0.1c-5.4-4.3-11.9-7.1-18.8-8
						c-0.4-0.1-0.8-0.4-0.8-0.9c0-0.4,3.7-9.3,11.1-12.9l0,0c5.8-2.8,10.8-8.7,11.9-14.1c1.3-6.1,3.2-15.2,12-14.9
						c0.4,0,0.7,0.3,0.8,0.6c0.1,0.4,0,0.8-0.4,1c-0.1,0-6.5,4.3-6.3,11.4c0,1.2,0.2,2.6,0.4,4c0.5,4.4,1.1,9.3-2.3,13.1
						c-4.1,4.3-7.9,8.4-7.9,13c0,4,1.5,6.5,1.6,6.5c0.2,0.3,0.2,0.8-0.1,1C119.4,63.4,119.1,63.5,118.9,63.5z M100.9,53.8
						c5.7,1,11.2,3.1,16,6.4c-0.3-1.2-0.6-2.7-0.6-4.5c0-5.3,4.1-9.7,8.4-14.3c2.9-3.1,2.4-7.4,1.9-11.6c-0.2-1.4-0.3-2.8-0.4-4.1
						c-0.2-5.1,2.6-8.8,4.7-10.9c-5,1.6-6.4,8.2-7.4,13.2c-1.2,5.9-6.6,12.4-12.9,15.3C105.2,45.8,102,51.4,100.9,53.8z"/>
				</g>
				<g>
					<path class="st80" d="M133.4,175.6c-8.5,0-10.4-9-11.6-14.9c-1.1-5.4-6.1-11.3-11.9-14.1l0,0c-7.4-3.6-10.9-12.2-11-12.5
						c-0.1-0.3-0.1-0.5,0.1-0.8c0.1-0.2,0.4-0.4,0.6-0.4c6.8-0.9,13.3-3.7,18.8-8c0.1,0,0.1-0.1,0.2-0.1c0.4-0.1,0.8-0.1,1,0.2
						c0.2,0.3,0.3,0.7,0.1,1c0,0-1.6,2.5-1.6,6.5c0,4.6,3.9,8.7,7.9,13c3.5,3.7,2.9,8.7,2.3,13.1c-0.2,1.4-0.3,2.7-0.4,3.9
						c-0.2,7,6.2,11.3,6.3,11.4c0.3,0.2,0.5,0.6,0.4,1c-0.1,0.4-0.4,0.6-0.8,0.6C133.6,175.6,133.5,175.6,133.4,175.6z M110.6,145
						c6.2,3,11.6,9.4,12.9,15.3c1,5,2.4,11.5,7.4,13.2c-2.1-2.1-4.9-5.9-4.7-10.9c0-1.3,0.2-2.7,0.4-4.1c0.5-4.2,1-8.5-1.9-11.6
						c-4.3-4.6-8.4-9-8.4-14.3c0-1.8,0.3-3.3,0.6-4.5c-4.8,3.2-10.3,5.4-16,6.4C102,136.7,105.2,142.4,110.6,145L110.6,145z"/>
					<path class="st80" d="M54.8,175.6c-0.1,0-0.3,0-0.4,0c-0.4,0-0.7-0.3-0.8-0.6c-0.1-0.4,0-0.8,0.4-1c0.1,0,6.5-4.3,6.3-11.4
						c0-1.2-0.2-2.6-0.4-4c-0.5-4.4-1.1-9.3,2.3-13.1c4.1-4.3,7.9-8.4,7.9-13c0-4-1.5-6.5-1.6-6.5c-0.2-0.3-0.2-0.8,0.1-1
						c0.2-0.3,0.7-0.4,1-0.2c0.1,0,0.2,0.1,0.2,0.1c5.4,4.3,11.9,7.1,18.8,8c0.3,0,0.5,0.2,0.6,0.4c0.1,0.2,0.2,0.5,0.1,0.8
						c-0.1,0.4-3.6,9-11,12.5l0,0c-5.8,2.8-10.8,8.7-11.9,14.1C65.2,166.6,63.3,175.6,54.8,175.6z M71.3,128
						c0.3,1.2,0.6,2.7,0.6,4.5c0,5.3-4.1,9.7-8.4,14.3c-2.9,3.1-2.4,7.4-1.9,11.6c0.2,1.4,0.3,2.8,0.4,4.1c0.2,5.1-2.6,8.8-4.7,10.9
						c5-1.6,6.4-8.2,7.4-13.2c1.2-5.9,6.6-12.4,12.9-15.3c5.4-2.6,8.6-8.2,9.7-10.6C81.6,133.4,76.1,131.3,71.3,128z M78,145.8
						L78,145.8L78,145.8z"/>
				</g>
			</g>
			<g>
				<g>
					<path class="st80" d="M62.2,70.9c-0.2,0-0.5-0.1-0.6-0.3c-10.2-11-19.9-22.7-28.7-34.7l-5.3-7.2c-0.3-0.4-0.2-0.8,0.1-1.2
						c0.3-0.3,0.8-0.3,1.2-0.1l7.2,5.3c12,8.8,23.6,18.5,34.7,28.7c0.2,0.2,0.3,0.4,0.3,0.7c0,0.3-0.1,0.5-0.3,0.7
						c-1.5,1.1-2.9,2.3-4.1,3.6c-1.2,1.2-2.4,2.6-3.6,4.1C62.7,70.7,62.5,70.8,62.2,70.9C62.2,70.9,62.2,70.9,62.2,70.9z M32.4,32.4
						l1.8,2.4c8.6,11.6,18,23,27.9,33.8c1-1.2,2-2.4,3.1-3.4c1.1-1.1,2.2-2.1,3.4-3.1c-10.8-9.9-22.1-19.3-33.8-27.9L32.4,32.4z"/>
					<path class="st80" d="M160,160.9c-0.2,0-0.4-0.1-0.5-0.2l-7.2-5.3c-12-8.8-23.6-18.5-34.7-28.7c-0.2-0.2-0.3-0.4-0.3-0.7
						c0-0.3,0.1-0.5,0.3-0.7c1.5-1.1,2.9-2.3,4.1-3.6c1.2-1.2,2.4-2.6,3.6-4.1c0.2-0.2,0.4-0.3,0.7-0.3c0.3,0,0.5,0.1,0.7,0.3
						c10.2,11,19.9,22.7,28.7,34.7l5.3,7.2c0.3,0.4,0.2,0.8-0.1,1.2C160.5,160.8,160.2,160.9,160,160.9z M119.6,126.1
						c10.8,9.9,22.1,19.3,33.8,27.9l2.4,1.8l-1.8-2.4c-8.6-11.6-18-23-27.9-33.8c-1,1.2-2,2.4-3.1,3.4
						C122,124.1,120.8,125.1,119.6,126.1z"/>
				</g>
				<g>
					<path class="st80" d="M126.1,70.9C126,70.9,126,70.9,126.1,70.9c-0.3,0-0.5-0.1-0.7-0.4c-1.1-1.5-2.3-2.9-3.6-4.1
						c-1.2-1.2-2.6-2.4-4.1-3.6c-0.2-0.2-0.3-0.4-0.3-0.7c0-0.3,0.1-0.5,0.3-0.7c11-10.2,22.7-19.9,34.7-28.7l7.2-5.3
						c0.4-0.3,0.8-0.2,1.2,0.1c0.3,0.3,0.3,0.8,0.1,1.2l-5.3,7.2c-8.8,12-18.5,23.6-28.7,34.7C126.5,70.8,126.3,70.9,126.1,70.9z
						 M119.6,62.1c1.2,1,2.4,2,3.4,3.1c1.1,1.1,2.1,2.2,3.1,3.4c9.9-10.8,19.3-22.1,27.9-33.8l1.8-2.4l-2.4,1.8
						C141.7,42.8,130.4,52.2,119.6,62.1z"/>
					<path class="st80" d="M28.2,160.9c-0.2,0-0.5-0.1-0.6-0.3c-0.3-0.3-0.3-0.8-0.1-1.2l5.3-7.2c8.8-12,18.5-23.6,28.7-34.7
						c0.2-0.2,0.4-0.3,0.7-0.3c0.3,0,0.5,0.1,0.7,0.3c1.1,1.5,2.3,2.8,3.6,4.1c1.2,1.2,2.6,2.4,4.1,3.6c0.2,0.2,0.3,0.4,0.3,0.7
						c0,0.3-0.1,0.5-0.3,0.7c-11,10.2-22.7,19.9-34.7,28.7l-7.2,5.3C28.6,160.9,28.4,160.9,28.2,160.9z M62.1,119.6
						c-9.9,10.8-19.3,22.1-27.9,33.8l-1.8,2.4l2.4-1.8c11.6-8.6,23-18,33.8-27.9c-1.2-1-2.4-2-3.4-3.1
						C64.1,122,63.1,120.8,62.1,119.6z"/>
				</g>
			</g>
			<g>
				<g>
					<path class="st80" d="M133.7,89.4c-0.2,0-0.3,0-0.4-0.1c-0.2-0.1-0.4-0.4-0.4-0.6c-0.9-6.8-3.7-13.3-8-18.8
						c0-0.1-0.1-0.1-0.1-0.2c-0.2-0.4-0.1-0.8,0.2-1c0.3-0.2,0.7-0.3,1-0.1c0,0,2.5,1.6,6.5,1.6c4.6,0,8.7-3.9,13-7.9
						c3.7-3.5,8.7-2.9,13.1-2.3c1.4,0.2,2.7,0.3,3.9,0.4c7,0.2,11.3-6.2,11.4-6.3c0.2-0.3,0.6-0.5,1-0.4c0.4,0.1,0.6,0.4,0.6,0.8
						c0.3,8.9-8.9,10.8-14.9,12c-5.4,1.1-11.3,6.1-14.1,11.9l0,0c-3.6,7.4-12.2,10.9-12.5,11C133.9,89.4,133.8,89.4,133.7,89.4z
						 M128.1,71.3c3.2,4.8,5.4,10.3,6.4,16c2.3-1.1,8-4.3,10.6-9.7l0,0c3-6.2,9.4-11.6,15.3-12.9c5-1,11.5-2.4,13.2-7.4
						c-2.1,2.1-5.9,4.8-10.9,4.7c-1.3,0-2.7-0.2-4.1-0.4c-4.2-0.5-8.5-1-11.6,1.9c-4.6,4.3-9,8.4-14.3,8.4
						C130.8,71.9,129.2,71.6,128.1,71.3z"/>
					<path class="st80" d="M174.7,134.6c-0.3,0-0.6-0.1-0.7-0.4c0-0.1-4.3-6.5-11.4-6.3c-1.2,0-2.6,0.2-3.9,0.4
						c-4.4,0.5-9.3,1.1-13.1-2.3c-4.3-4.1-8.4-7.9-13-7.9c-4,0-6.5,1.5-6.5,1.6c-0.3,0.2-0.7,0.2-1-0.1s-0.4-0.7-0.2-1
						c0-0.1,0.1-0.2,0.1-0.2c4.3-5.4,7.1-11.9,8-18.8c0-0.3,0.2-0.5,0.4-0.6c0.2-0.1,0.5-0.2,0.8-0.1c0.4,0.1,9,3.6,12.5,11l0,0
						c2.8,5.8,8.7,10.8,14.1,11.9c6.1,1.3,15.2,3.2,14.9,12c0,0.4-0.3,0.7-0.6,0.8C174.9,134.6,174.8,134.6,174.7,134.6z M163,126.2
						c4.9,0,8.5,2.6,10.5,4.7c-1.6-5-8.2-6.4-13.2-7.4c-5.9-1.2-12.4-6.6-15.3-12.9l0,0c-2.6-5.4-8.2-8.6-10.6-9.7
						c-1,5.7-3.1,11.2-6.4,16c1.2-0.3,2.7-0.6,4.5-0.6c5.3,0,9.7,4.1,14.3,8.4c3.1,2.9,7.4,2.4,11.6,1.9c1.4-0.2,2.8-0.3,4.1-0.4
						C162.7,126.2,162.8,126.2,163,126.2z"/>
				</g>
				<g>
					<path class="st80" d="M13.5,134.6c-0.1,0-0.2,0-0.2,0c-0.4-0.1-0.6-0.4-0.6-0.8c-0.3-8.9,8.9-10.8,14.9-12
						c5.4-1.1,11.3-6.1,14.1-11.9c3.6-7.4,12.2-10.9,12.5-11c0.2-0.1,0.5-0.1,0.8,0.1c0.2,0.1,0.4,0.4,0.4,0.6
						c0.9,6.8,3.7,13.3,8,18.8c0,0.1,0.1,0.1,0.1,0.2c0.1,0.4,0.1,0.8-0.2,1s-0.7,0.3-1,0.1c0,0-2.5-1.6-6.5-1.6
						c-4.6,0-8.7,3.9-13,7.9c-3.7,3.5-8.7,2.9-13.1,2.3c-1.4-0.2-2.7-0.3-3.9-0.4c-7.1-0.2-11.3,6.2-11.4,6.3
						C14,134.5,13.8,134.6,13.5,134.6z M53.8,100.9c-2.3,1.1-8,4.3-10.6,9.7l0,0c-3,6.2-9.4,11.6-15.3,12.9c-5,1-11.5,2.4-13.2,7.4
						c2.1-2.1,5.8-4.8,10.9-4.7c1.3,0,2.7,0.2,4.1,0.4c4.2,0.5,8.5,1,11.6-1.9c4.6-4.3,9-8.4,14.3-8.4c1.8,0,3.3,0.3,4.5,0.6
						C56.9,112,54.7,106.6,53.8,100.9z M42.4,110.2L42.4,110.2L42.4,110.2z"/>
					<path class="st80" d="M54.5,89.4c-0.1,0-0.2,0-0.3-0.1c-0.4-0.1-9-3.6-12.5-11l0,0c-2.8-5.8-8.7-10.8-14.1-11.9
						c-6.1-1.3-15.2-3.2-14.9-12c0-0.4,0.3-0.7,0.6-0.8c0.4-0.1,0.8,0,1,0.4c0,0.1,4.3,6.5,11.4,6.3c1.2,0,2.6-0.2,3.9-0.4
						c4.4-0.5,9.3-1.1,13.1,2.3c4.3,4.1,8.4,7.9,13,7.9c4,0,6.5-1.5,6.5-1.6c0.3-0.2,0.7-0.2,1,0.1s0.4,0.7,0.2,1
						c0,0.1-0.1,0.2-0.1,0.2c-4.3,5.4-7.1,11.9-8,18.8c0,0.3-0.2,0.5-0.4,0.6C54.8,89.4,54.6,89.4,54.5,89.4z M14.7,57.3
						c1.6,5,8.2,6.4,13.2,7.4c5.9,1.2,12.4,6.6,15.3,12.9l0,0c2.6,5.4,8.2,8.6,10.6,9.7c1-5.7,3.1-11.2,6.4-16
						c-1.2,0.3-2.7,0.6-4.5,0.6c-5.3,0-9.7-4.1-14.3-8.4c-3.1-2.9-7.4-2.4-11.6-1.9c-1.4,0.2-2.8,0.3-4.1,0.4
						C20.6,62.1,16.8,59.4,14.7,57.3z"/>
				</g>
			</g>
		</g>
	</g>
	<g>
		<path class="st80" d="M102.3,89.7c-0.4,0-0.7-0.2-0.8-0.6c-0.2-0.5,0.1-1,0.5-1.1c0.4-0.1,1.4-0.6,1.8-1.3
			c0.9-1.4,3.9-2.7,6.4-2.7s5.5,1.2,6.4,2.7c0.5,0.7,1.5,1.2,1.8,1.3c0.5,0.2,0.7,0.7,0.5,1.1s-0.7,0.7-1.1,0.5
			c-0.2-0.1-1.9-0.7-2.7-2c-0.5-0.7-2.8-1.9-4.9-1.9s-4.4,1.1-4.9,1.9c-0.9,1.3-2.5,1.9-2.7,2C102.5,89.7,102.4,89.7,102.3,89.7z"/>
		<path class="st80" d="M110.2,90.7c-1.8,0-3.3-1.5-3.3-3.3s1.5-3.3,3.3-3.3c1.8,0,3.3,1.5,3.3,3.3S112.1,90.7,110.2,90.7z
			 M110.2,85.8c-0.9,0-1.6,0.7-1.6,1.6s0.7,1.6,1.6,1.6c0.9,0,1.6-0.7,1.6-1.6S111.1,85.8,110.2,85.8z"/>
		<path class="st80" d="M101.5,87.3c-0.2,0-0.5-0.1-0.7-0.3c-0.3-0.4-0.3-0.9,0.1-1.2c0.1-0.1,3.1-2.7,4.5-3.6
			c1.6-0.9,5.7-1.4,7.6-0.5c1.7,0.8,4.5,3.8,4.8,4.2c0.3,0.4,0.3,0.9-0.1,1.2c-0.4,0.3-0.9,0.3-1.2-0.1c-0.8-0.9-3.1-3.2-4.2-3.8
			c-1.3-0.6-4.8-0.2-6,0.4c-1.1,0.6-3.4,2.7-4.2,3.4C101.9,87.2,101.7,87.3,101.5,87.3z"/>
		<path class="st80" d="M93.6,110c0,0-0.1,0-0.1,0c-1.2,0.1-2-0.6-2.7-1.2c-0.5-0.4-0.9-0.7-1.4-0.8c-0.2,0-0.4,0-0.6,0
			c-1.5,0-3.9-0.1-4.4-2.7c-0.5-2.7,1.7-4.6,1.8-4.6c0.4-0.3,0.9-0.3,1.2,0.1c0.3,0.4,0.3,0.9-0.1,1.2c0,0-1.5,1.3-1.2,3
			c0.2,1.1,1,1.2,2.7,1.3c0.2,0,0.4,0,0.6,0c1,0.1,1.7,0.6,2.4,1.1c0.6,0.5,1,0.8,1.6,0.8c0.6,0,1-0.3,1.7-0.8
			c0.6-0.5,1.4-1.1,2.4-1.1c0.2,0,0.4,0,0.6,0c1.7,0,2.5-0.2,2.7-1.3c0.3-1.7-1.2-3-1.2-3c-0.4-0.3-0.4-0.9-0.1-1.2
			c0.3-0.4,0.9-0.4,1.2-0.1c0.1,0.1,2.2,2,1.8,4.6c-0.5,2.6-2.9,2.7-4.4,2.7c-0.2,0-0.4,0-0.6,0c-0.4,0-0.9,0.4-1.4,0.8
			C95.6,109.3,94.8,110,93.6,110z"/>
		<path class="st80" d="M91.6,106.6c-0.1,0-0.2,0-0.4-0.1c-0.1,0-2.3-1.1-1.5-4.6c0.3-1.1,0.5-1.8,0.8-2.4c0.4-0.9,0.7-1.6,0.7-4.3
			V84.9c0-0.5,0.4-0.9,0.9-0.9s0.9,0.4,0.9,0.9v10.2c0,3.1-0.4,4-0.9,5.1c-0.2,0.5-0.5,1-0.7,2c-0.5,2.1,0.5,2.6,0.5,2.7
			c0.4,0.2,0.6,0.8,0.4,1.2C92.2,106.4,91.9,106.6,91.6,106.6z"/>
		<path class="st80" d="M93.5,116.9c-0.8,0-1.2-0.2-1.5-0.4c-0.3-0.2-0.7-0.3-1.6-0.4c-0.4,0-0.7,0.1-1.1,0.1
			c-0.4,0.1-0.9,0.2-1.6,0.2c-1.4,0.1-3.4-0.2-3.5-0.2c-0.5-0.1-0.8-0.5-0.8-1c0.1-0.5,0.5-0.8,1-0.8c0,0,2,0.2,3.2,0.2
			c0.6,0,1-0.1,1.4-0.2c0.5-0.1,1-0.2,1.6-0.2c1.3,0.1,1.9,0.3,2.3,0.6c0.3,0.1,0.4,0.2,0.7,0.2c0.2,0,0.4-0.1,0.6-0.2
			c0.4-0.2,1-0.5,2.3-0.6c0.6,0,1.1,0.1,1.6,0.2c0.4,0.1,0.8,0.2,1.4,0.2c1.2,0.1,3.2-0.2,3.2-0.2c0.5-0.1,0.9,0.3,1,0.8
			c0.1,0.5-0.3,0.9-0.8,1c-0.1,0-2.1,0.2-3.5,0.2c-0.7,0-1.2-0.1-1.6-0.2c-0.4-0.1-0.7-0.2-1.1-0.1c-0.9,0-1.2,0.2-1.6,0.4
			C94.6,116.7,94.2,116.9,93.5,116.9z"/>
		<path class="st80" d="M93.5,115.5c-0.2,0-0.4-0.1-0.5-0.2c-0.7-0.5-1.7-1.2-2-1.3c-0.3,0-1.2,0.4-2,0.8c-0.4,0.2-1,0.1-1.2-0.4
			c-0.2-0.4-0.1-1,0.4-1.2c1.6-0.8,2.6-1.1,3.2-1c0.5,0.1,1.4,0.8,2.1,1.2c0.7-0.5,1.6-1.1,2.1-1.2c0.6-0.2,1.7,0.2,3.2,1
			c0.4,0.2,0.6,0.8,0.4,1.2c-0.2,0.4-0.8,0.6-1.2,0.4c-0.8-0.4-1.7-0.8-2-0.8c-0.3,0.1-1.3,0.8-2,1.3
			C93.9,115.4,93.7,115.5,93.5,115.5z"/>
		<path class="st80" d="M93.5,120.1c-2.8,0-6.5-2.5-6.7-2.6c-0.4-0.3-0.5-0.8-0.2-1.2c0.3-0.4,0.8-0.5,1.2-0.2
			c1,0.6,3.8,2.3,5.7,2.3c1.8,0,4.7-1.6,5.7-2.3c0.4-0.3,1-0.2,1.2,0.2c0.3,0.4,0.2,1-0.2,1.2C100,117.6,96.2,120.1,93.5,120.1z"/>
		<path class="st80" d="M118.9,78.8c-0.1,0-0.3,0-0.4-0.1c-11.6-6.4-18.1-0.2-18.2-0.1c-0.3,0.3-0.9,0.3-1.3,0
			c-0.3-0.3-0.3-0.9,0-1.3c0.3-0.3,7.5-7.2,20.3-0.1c0.4,0.2,0.6,0.8,0.3,1.2C119.5,78.6,119.2,78.8,118.9,78.8z"/>
		<path class="st80" d="M70,89.7c-0.4,0-0.7-0.2-0.8-0.6c-0.2-0.5,0.1-1,0.5-1.1l0,0c0.4-0.1,1.4-0.6,1.8-1.3
			c0.9-1.4,3.9-2.7,6.4-2.7s5.5,1.2,6.4,2.7c0.5,0.7,1.5,1.2,1.8,1.3c0.5,0.2,0.7,0.7,0.5,1.1s-0.7,0.7-1.1,0.5
			c-0.2-0.1-1.9-0.7-2.7-2c-0.5-0.7-2.8-1.9-4.9-1.9s-4.4,1.1-4.9,1.9c-0.9,1.3-2.5,1.9-2.7,2C70.2,89.7,70.1,89.7,70,89.7z"/>
		<path class="st80" d="M78,90.7c-1.8,0-3.3-1.5-3.3-3.3S76.1,84,78,84s3.3,1.5,3.3,3.3S79.8,90.7,78,90.7z M78,85.8
			c-0.9,0-1.6,0.7-1.6,1.6s0.7,1.6,1.6,1.6s1.6-0.7,1.6-1.6S78.8,85.8,78,85.8z"/>
		<path class="st80" d="M86.7,87.3c-0.2,0-0.4-0.1-0.6-0.2c0,0-3-2.6-4.2-3.4c-1.2-0.7-4.7-1-6-0.4c-1.2,0.5-3.4,2.9-4.2,3.8
			c-0.3,0.4-0.9,0.4-1.2,0.1c-0.4-0.3-0.4-0.9-0.1-1.2c0.3-0.3,3.1-3.4,4.8-4.2c1.9-0.9,6-0.4,7.6,0.5c1.4,0.8,4.4,3.5,4.5,3.6
			c0.4,0.3,0.4,0.9,0.1,1.2C87.2,87.2,86.9,87.3,86.7,87.3z"/>
		<path class="st80" d="M69.3,78.8c-0.3,0-0.6-0.2-0.8-0.5c-0.2-0.4-0.1-1,0.3-1.2c12.8-7.1,20-0.2,20.3,0.1c0.3,0.3,0.4,0.9,0,1.3
			c-0.3,0.3-0.9,0.4-1.2,0l0,0c-0.3-0.3-6.6-6.2-18.2,0.1C69.6,78.7,69.5,78.8,69.3,78.8z"/>
	</g>
</g>
</svg>
