<svg id="Layer_1" viewBox="0 0 512 512" xmlns="http://www.w3.org/2000/svg" data-name="Layer 1"><path d="m406.435 346.728c-7.468-1.993-15.236-.966-21.858 2.878l-1.519.876c-1.247-2.153-2.759-4.156-4.545-5.942-10.941-10.942-28.582-11.236-39.925-.882-11.273-11.05-29.43-10.985-40.616.202l-18.262 18.263-74.172-19.855c-7.638-2.47-17.008-1.501-23.951 2.492l-55.153 31.834-3.945-6.833c-4.898-8.444-15.767-11.359-24.243-6.49l-45.042 26.022c-4.642 2.682-7.979 7.418-8.927 12.671-.833 4.616.274 9.056 3.12 12.506l68.156 82.501c4.208 5.069 9.73 7.764 15.198 7.764 2.862 0 5.709-.738 8.345-2.261l29.652-17.122c8.472-4.895 11.388-15.76 6.501-24.219l-3.953-6.846 6.71-3.879c3.295-1.895 4.401-1.858 9.602-.688l80.925 21.674c3.021.814 6.09 1.217 9.144 1.217 6.095 0 12.128-1.606 17.582-4.749l118.17-68.254c6.666-3.84 11.44-10.067 13.443-17.533 2.002-7.461.99-15.241-2.854-21.914-3.851-6.667-10.095-11.438-17.581-13.434zm-37.823 7.713c.912.912 1.685 1.935 2.324 3.035l-62.377 35.99 33.947-33.969c.206-.184.401-.378.582-.583l4.462-4.465c5.819-5.799 15.267-5.803 21.062-.008zm-60.738-.68c5.72-5.719 14.971-5.783 20.785-.217l-24.933 24.949c-2.029-4.466-5.293-8.345-9.483-11.1l13.632-13.632zm-146.13 119.464-29.65 17.121h-.002c-2.046 1.184-4.586-.902-5.754-2.308l-68.142-82.484c-.184-.223-.23-.594-.138-1.104.212-1.177 1.097-2.424 2.151-3.033l45.028-26.014c.589-.338 1.232-.499 1.868-.499 1.302 0 2.57.673 3.264 1.869l52.754 91.362c1.008 1.745.375 4.076-1.379 5.089zm251.602-94.779c-1.033 3.85-3.486 7.057-6.916 9.032l-118.171 68.255c-4.936 2.845-10.649 3.604-16.093 2.137l-81.071-21.713c-.089-.024-.179-.046-.27-.066-6.735-1.521-12.097-2.254-19.815 2.186l-6.717 3.883-30.857-53.44 55.142-31.827c3.52-2.025 8.881-2.558 12.748-1.27.133.044.268.085.404.122l81.31 21.766c6.498 1.755 10.363 8.461 8.609 14.969-1.678 6.31-8.073 9.922-14.578 8.25l-61.192-16.223c-3.741-.991-7.571 1.236-8.562 4.973-.991 3.738 1.235 7.571 4.973 8.562l61.082 16.194c.022.006.043.015.065.021l9.764 2.583c7.636 2.006 11.898.57 21.661-5.073l86.728-50.04c3.397-1.973 7.389-2.493 11.237-1.467 3.867 1.031 7.085 3.484 9.059 6.9 1.974 3.427 2.492 7.435 1.458 11.287zm-308.312 34.666c1.935 3.348.789 7.63-2.559 9.565-1.103.638-2.308.941-3.497.941-2.419 0-4.771-1.255-6.068-3.5l-9.468-16.384c-1.935-3.348-.789-7.63 2.559-9.565 3.347-1.936 7.63-.79 9.565 2.559zm155.116-75.386c54.581 0 98.985-44.405 98.985-98.985s-44.405-98.958-98.985-98.958-98.958 44.392-98.958 98.958 44.392 98.985 98.958 98.985zm0-183.94c46.859 0 84.982 38.11 84.982 84.955s-38.123 84.982-84.982 84.982-84.955-38.123-84.955-84.982 38.11-84.955 84.955-84.955zm-51.081 64.744c0-8.986 7.313-16.299 16.299-16.299s16.299 7.313 16.299 16.299-7.342 16.299-16.299 16.299-16.299-7.342-16.299-16.299zm69.591 0c0-8.986 7.342-16.299 16.299-16.299s16.299 7.313 16.299 16.299-7.313 16.299-16.299 16.299-16.299-7.342-16.299-16.299zm-18.51 69.959c15.274 0 28.954-8.506 35.7-22.2 1.709-3.469 5.905-4.896 9.375-3.187 3.469 1.709 4.896 5.906 3.187 9.375-9.121 18.514-27.614 30.014-48.262 30.014s-39.112-11.5-48.234-30.014c-1.709-3.468-.282-7.666 3.187-9.375 3.467-1.71 7.666-.282 9.375 3.187 6.747 13.693 20.416 22.2 35.672 22.2zm-59.605-221.438 27.98 20.236-10.771 32.938c-1.206 3.842.168 8.025 3.418 10.407 1.66 1.217 3.604 1.825 5.548 1.825s3.877-.605 5.527-1.815l27.918-20.376 27.906 20.368c3.316 2.43 7.772 2.431 11.085 0 3.309-2.426 4.652-6.644 3.357-10.515l-10.711-32.83 28.021-20.266c3.229-2.368 4.608-6.542 3.433-10.386-.023-.074-.047-.148-.072-.221-1.307-3.814-4.891-6.377-8.936-6.377l-34.543.077-10.594-32.895c-.014-.042-.027-.083-.042-.125-1.308-3.812-4.892-6.374-8.918-6.374s-7.583 2.562-8.891 6.374c-.014.04-.027.08-.04.12l-10.622 32.9-34.561-.077c-4.01 0-7.583 2.562-8.891 6.374-.025.075-.05.151-.073.227-1.174 3.844.207 8.018 3.472 10.411zm43.419-2.924c4.126 0 7.71-2.633 8.942-6.559l7.252-22.464 7.268 22.564c1.289 3.863 4.88 6.458 8.953 6.458l23.625-.053-19.193 13.881c-3.308 2.426-4.65 6.643-3.355 10.514l7.315 22.421-19.077-13.924c-.037-.027-.073-.053-.11-.079-3.242-2.272-7.598-2.272-10.841 0-.037.026-.074.053-.111.08l-19.1 13.94 7.336-22.432c1.298-3.872-.044-8.092-3.391-10.547l-19.155-13.854 23.641.053zm-167.011 103.056-17.329 29.88c-2.032 3.527-1.578 7.934 1.128 10.964 2.722 3.047 7.062 3.988 10.834 2.321l31.528-14.125 23.07 25.731c.025.028.05.056.076.083 1.821 1.966 4.343 3.017 6.913 3.017 1.282 0 2.577-.262 3.802-.802 3.744-1.653 5.963-5.509 5.523-9.586l-3.667-34.351 31.592-13.975c3.718-1.641 5.932-5.452 5.532-9.505-.37-4.06-3.301-7.377-7.401-8.289l-33.798-7.1-3.56-34.341c-.375-4.058-3.402-7.429-7.409-8.252-4.024-.854-8.067.968-10.053 4.498l-17.224 29.957-33.799-7.261c-.044-.01-.088-.019-.132-.027-4.003-.78-7.993 1.055-9.973 4.568-2.059 3.572-1.572 7.979 1.171 10.938l23.175 25.655zm19.887-19.479c3.957.855 8.006-.914 10.128-4.487l11.771-20.473 2.43 23.435c.373 4.056 3.304 7.37 7.401 8.281l23.124 4.857-21.591 9.551c-3.763 1.661-5.994 5.518-5.552 9.586l2.509 23.5-15.751-17.568c-1.823-2.042-4.372-3.137-6.991-3.137-1.291 0-2.598.266-3.843.815l-21.566 9.661 11.907-20.532c2.006-3.567 1.494-7.974-1.218-10.904l-15.852-17.547 23.095 4.961zm370.863-17.14c-2.028-3.523-5.934-5.307-9.951-4.548-.057.011-.112.022-.168.034l-33.77 7.26-17.191-29.897c-2.015-3.583-6.054-5.406-10.066-4.56-4.017.81-7.004 4.081-7.452 8.21l-3.539 34.387-33.837 7.108c-3.978.861-6.942 4.152-7.378 8.189-.007.062-.013.125-.018.187-.325 4.014 1.912 7.795 5.563 9.407l31.596 13.976-3.692 34.343c-.441 4.08 1.791 7.936 5.551 9.595 1.225.541 2.52.803 3.803.803 2.569 0 5.092-1.052 6.913-3.02.025-.027.05-.054.074-.082l23.071-25.731 31.563 14.14c3.739 1.65 8.078.709 10.798-2.337 2.707-3.031 3.16-7.437 1.118-10.982l-17.318-29.861 23.176-25.656c.012-.014.025-.028.037-.042 2.727-3.067 3.157-7.49 1.118-10.923zm-36.915 29.662c-2.771 2.992-3.284 7.4-1.231 11.048l11.861 20.452-21.601-9.677c-3.74-1.649-8.08-.709-10.789 2.327l-15.781 17.601 2.528-23.514c.441-4.08-1.791-7.936-5.546-9.592l-21.597-9.554 23.205-4.875c3.939-.876 6.878-4.164 7.315-8.215l2.419-23.509 11.755 20.443c2.022 3.594 6.104 5.419 10.153 4.545l23.106-4.968z"/></svg>