<svg clip-rule="evenodd" fill-rule="evenodd" height="512" stroke-linejoin="round" stroke-miterlimit="2" viewBox="0 0 48 48" width="512" xmlns="http://www.w3.org/2000/svg"><g transform="translate(-336 -336)"><g id="Icon"><path d="m371 350c0-1.326-.527-2.598-1.464-3.536-.938-.937-2.21-1.464-3.536-1.464-6.148 0-17.852 0-24 0-1.326 0-2.598.527-3.536 1.464-.937.938-1.464 2.21-1.464 3.536v20c0 1.326.527 2.598 1.464 3.536.938.937 2.21 1.464 3.536 1.464h24c1.326 0 2.598-.527 3.536-1.464.937-.938 1.464-2.21 1.464-3.536zm-2 0v20c0 .796-.316 1.559-.879 2.121-.562.563-1.325.879-2.121.879-6.148 0-17.852 0-24 0-.796 0-1.559-.316-2.121-.879-.563-.562-.879-1.325-.879-2.121v-20c0-.796.316-1.559.879-2.121.562-.563 1.325-.879 2.121-.879h24c.796 0 1.559.316 2.121.879.563.562.879 1.325.879 2.121z"/><g transform="matrix(.667 0 0 .667 118 116.667)"><path d="m354 348.5c-4.139 0-7.5 3.361-7.5 7.5s3.361 7.5 7.5 7.5 7.5-3.361 7.5-7.5-3.361-7.5-7.5-7.5zm0 3c2.484 0 4.5 2.016 4.5 4.5s-2.016 4.5-4.5 4.5-4.5-2.016-4.5-4.5 2.016-4.5 4.5-4.5z"/></g><path d="m345 368c0 1.657 1.343 3 3 3h12c1.657 0 3-1.343 3-3 0-3.866-3.134-7-7-7-1.308 0-2.692 0-4 0-3.866 0-7 3.134-7 7zm16 0c0-2.761-2.239-5-5-5-1.308 0-2.692 0-4 0-2.761 0-5 2.239-5 5 0 .552.448 1 1 1h12c.552 0 1-.448 1-1z"/><path d="m373.445 367.236 4.891 3.26c.92.614 2.104.671 3.08.149.975-.522 1.584-1.539 1.584-2.645v-16c0-1.106-.609-2.123-1.584-2.645-.976-.522-2.16-.465-3.08.149 0 0-4.891 3.26-4.891 3.26-.459.306-.583.928-.277 1.387s.927.583 1.387.277l4.89-3.26c.307-.205.702-.224 1.027-.05s.528.513.528.882v16c0 .369-.203.708-.528.882s-.72.155-1.027-.05c0 0-4.89-3.26-4.89-3.26-.46-.306-1.081-.182-1.387.277s-.182 1.081.277 1.387z"/></g></g></svg>