<?xml version="1.0" encoding="UTF-8"?>
<svg id="Layer_1" data-name="Layer 1" xmlns="http://www.w3.org/2000/svg" viewBox="0 0 41.48 44.45">
  <defs>
    <style>
      .cls-1 {
        fill: #8a0909;
      }
    </style>
  </defs>
  <g id="message_letter_mail_tick_e-mail_check" data-name="message, letter, mail, tick, e-mail, check">
    <g>
      <path class="cls-1" d="m36.3,22.67c-.41,0-.74-.33-.74-.74V.74c0-.41.33-.74.74-.74s.74.33.74.74v21.19c0,.41-.33.74-.74.74Z"/>
      <path class="cls-1" d="m5.19,22.67c-.41,0-.74-.33-.74-.74V.74c0-.41.33-.74.74-.74h31.11c.41,0,.74.33.74.74s-.33.74-.74.74H5.93v20.44c0,.41-.33.74-.74.74Z"/>
      <path class="cls-1" d="m40.74,44.45H.74C.33,44.45,0,44.11,0,43.7v-25.19c0-.28.16-.54.42-.67.25-.12.56-.09.78.08l12.67,9.86c.32.25.38.72.13,1.04-.25.32-.72.38-1.04.13L1.48,20.03v22.93h38.52v-22.93l-11.4,8.87c-.32.25-.79.19-1.04-.13s-.19-.79.13-1.04l12.59-9.79c.22-.17.53-.21.78-.08.25.12.42.38.42.67v25.19c0,.41-.33.74-.74.74Z"/>
      <path class="cls-1" d="m40.74,42.22c-.15,0-.3-.04-.43-.14l-19.57-13.77L1.17,42.09c-.33.24-.8.16-1.03-.18-.24-.33-.15-.8.18-1.03l20-14.07c.26-.18.6-.18.85,0l20,14.07c.33.24.42.7.18,1.03-.14.2-.37.31-.61.31Z"/>
      <path class="cls-1" d="m40.74,19.26c-.16,0-.33-.05-.47-.17l-4.45-3.63c-.32-.26-.36-.72-.11-1.04.26-.32.73-.37,1.04-.11l4.45,3.63c.32.26.36.72.11,1.04-.15.18-.36.27-.57.27Z"/>
      <path class="cls-1" d="m.74,19.26c-.22,0-.43-.09-.57-.27-.26-.32-.21-.78.11-1.04l4.44-3.62c.32-.26.78-.21,1.04.11.26.32.21.78-.11,1.04l-4.44,3.62c-.14.11-.3.17-.47.17Z"/>
      <path class="cls-1" d="m20.74,21.48c-4.49,0-8.15-3.66-8.15-8.15s3.66-8.15,8.15-8.15c1.45,0,2.87.38,4.11,1.11.35.21.47.66.27,1.01s-.66.47-1.01.27c-1.02-.59-2.18-.91-3.36-.91-3.68,0-6.67,2.99-6.67,6.67s2.99,6.67,6.67,6.67,6.67-2.99,6.67-6.67c0-.23-.01-.47-.04-.69-.04-.41.25-.77.66-.81.4-.04.77.25.81.66.03.28.04.56.04.85,0,4.49-3.66,8.15-8.15,8.15Z"/>
      <path class="cls-1" d="m20.74,15.96c-.19,0-.38-.07-.52-.22l-3.42-3.42c-.29-.29-.29-.76,0-1.05s.76-.29,1.05,0l2.9,2.89,6.57-6.57c.29-.29.76-.29,1.05,0,.29.29.29.76,0,1.05l-7.1,7.1c-.15.14-.33.22-.52.22Z"/>
    </g>
    <g>
      <path class="cls-1" d="m36.3,22.67c-.41,0-.74-.33-.74-.74V.74c0-.41.33-.74.74-.74s.74.33.74.74v21.19c0,.41-.33.74-.74.74Z"/>
      <path class="cls-1" d="m5.19,22.67c-.41,0-.74-.33-.74-.74V.74c0-.41.33-.74.74-.74h31.11c.41,0,.74.33.74.74s-.33.74-.74.74H5.93v20.44c0,.41-.33.74-.74.74Z"/>
      <path class="cls-1" d="m40.74,44.45H.74C.33,44.45,0,44.11,0,43.7v-25.19c0-.28.16-.54.42-.67.25-.12.56-.09.78.08l12.67,9.86c.32.25.38.72.13,1.04-.25.32-.72.38-1.04.13L1.48,20.03v22.93h38.52v-22.93l-11.4,8.87c-.32.25-.79.19-1.04-.13s-.19-.79.13-1.04l12.59-9.79c.22-.17.53-.21.78-.08.25.12.42.38.42.67v25.19c0,.41-.33.74-.74.74Z"/>
      <path class="cls-1" d="m40.74,42.22c-.15,0-.3-.04-.43-.14l-19.57-13.77L1.17,42.09c-.33.24-.8.16-1.03-.18-.24-.33-.15-.8.18-1.03l20-14.07c.26-.18.6-.18.85,0l20,14.07c.33.24.42.7.18,1.03-.14.2-.37.31-.61.31Z"/>
      <path class="cls-1" d="m40.74,19.26c-.16,0-.33-.05-.47-.17l-4.45-3.63c-.32-.26-.36-.72-.11-1.04.26-.32.73-.37,1.04-.11l4.45,3.63c.32.26.36.72.11,1.04-.15.18-.36.27-.57.27Z"/>
      <path class="cls-1" d="m.74,19.26c-.22,0-.43-.09-.57-.27-.26-.32-.21-.78.11-1.04l4.44-3.62c.32-.26.78-.21,1.04.11.26.32.21.78-.11,1.04l-4.44,3.62c-.14.11-.3.17-.47.17Z"/>
      <path class="cls-1" d="m20.74,21.48c-4.49,0-8.15-3.66-8.15-8.15s3.66-8.15,8.15-8.15c1.45,0,2.87.38,4.11,1.11.35.21.47.66.27,1.01s-.66.47-1.01.27c-1.02-.59-2.18-.91-3.36-.91-3.68,0-6.67,2.99-6.67,6.67s2.99,6.67,6.67,6.67,6.67-2.99,6.67-6.67c0-.23-.01-.47-.04-.69-.04-.41.25-.77.66-.81.4-.04.77.25.81.66.03.28.04.56.04.85,0,4.49-3.66,8.15-8.15,8.15Z"/>
      <path class="cls-1" d="m20.74,15.96c-.19,0-.38-.07-.52-.22l-3.42-3.42c-.29-.29-.29-.76,0-1.05s.76-.29,1.05,0l2.9,2.89,6.57-6.57c.29-.29.76-.29,1.05,0,.29.29.29.76,0,1.05l-7.1,7.1c-.15.14-.33.22-.52.22Z"/>
    </g>
  </g>
</svg>