<?xml version="1.0" encoding="UTF-8"?>
<svg id="Layer_1" data-name="Layer 1" xmlns="http://www.w3.org/2000/svg" viewBox="0 0 40 36.98">
  <defs>
    <style>
      .cls-1 {
        fill: #8a0909;
      }
    </style>
  </defs>
  <path class="cls-1" d="m31.94,25.04l-7.36,3.57c.12-1.17-.37-2.36-1.35-3.12-2.85-2.2-5.7-4.4-8.55-6.6-.1-.07-.21-.11-.33-.11h-6.53v-1.48c0-.3-.24-.55-.55-.55H1.05c-.3,0-.55.24-.55.55v15.26c0,.3.24.55.55.55h6.22c.3,0,.55-.24.55-.55v-1.13c.86.45,1.67.88,2.39,1.26,5.47,2.89,8.17,4.3,10.87,4.3,2.53,0,5.06-1.23,9.88-3.63,1.19-.59,2.53-1.26,4.05-1.99,1.74-.84,2.47-2.95,1.63-4.69-.84-1.74-2.95-2.47-4.69-1.62h0Zm-25.23,6.96H1.6v-14.16h5.12v14.16Zm27.81-1.63c-1.52.74-2.87,1.41-4.06,2-4.81,2.39-7.22,3.59-9.61,3.51-2.41-.08-4.99-1.44-10.14-4.17-.87-.46-1.85-.98-2.91-1.53v-10.31h6.35c2.8,2.16,5.6,4.32,8.4,6.49.84.65,1.15,1.75.8,2.73l-.03.08s-.04.09-.06.14c0,.02-.02.04-.03.06-.07.13-.15.26-.24.39-.39.51-.96.83-1.6.91s-1.27-.09-1.78-.48l-6.02-4.64-.67.87,6.02,4.64c.62.48,1.36.73,2.13.73.15,0,.3,0,.46-.03.93-.12,1.76-.59,2.33-1.33.09-.11.16-.23.24-.35l8.32-4.03c1.2-.58,2.64-.08,3.22,1.12.58,1.2.08,2.64-1.12,3.22ZM11.83,7.32c-.24,0-.45.15-.52.38-.07.23,0,.47.2.61l4.74,3.43-1.82,5.56c-.07.23,0,.47.2.61.1.07.21.1.32.1s.23-.04.32-.11l4.72-3.45,4.73,3.45c.19.14.45.14.64,0,.19-.14.27-.39.2-.61l-1.82-5.56,4.74-3.43c.19-.14.27-.39.2-.61-.07-.23-.28-.38-.52-.38h-5.85s-1.8-5.56-1.8-5.56c-.07-.23-.28-.38-.52-.38-.24,0-.45.15-.52.38l-1.8,5.57h-5.85s0-.01,0-.01h0Zm6.25,1.11h0c.24,0,.45-.15.52-.38l1.4-4.33,1.4,4.33c.07.23.28.38.52.38h4.56s-3.69,2.66-3.69,2.66c-.19.14-.27.39-.2.61l1.42,4.33-3.68-2.68c-.1-.07-.21-.11-.32-.11s-.23.04-.32.11l-3.68,2.68,1.42-4.33c.07-.23,0-.47-.2-.61l-3.69-2.67h4.56Zm-15.67,3.8c-.07.23,0,.47.2.61.19.14.45.14.64,0l3.52-2.57,3.52,2.57c.1.07.21.11.32.11s.23-.03.32-.1c.19-.14.27-.39.2-.61l-1.36-4.15,3.53-2.56c.19-.14.27-.39.2-.61-.07-.23-.28-.38-.52-.38h-4.36S7.29.38,7.29.38c-.07-.23-.28-.38-.52-.38h0c-.24,0-.45.15-.52.38l-1.34,4.15H.55s0,0,0,0c-.24,0-.45.15-.52.38-.07.23,0,.47.2.61l3.53,2.56-1.36,4.15Zm-.16-6.6h3.07s0,0,0,0c.24,0,.45-.15.52-.38l.94-2.92.94,2.92c.07.23.28.38.52.38h3.07s-2.48,1.79-2.48,1.79c-.19.14-.27.39-.2.61l.95,2.92-2.48-1.81c-.19-.14-.45-.14-.64,0l-2.48,1.81.95-2.92c.07-.23,0-.47-.2-.61l-2.48-1.8Zm37.73-.72c-.07-.23-.28-.38-.52-.38h-4.36s-1.34-4.14-1.34-4.14c-.07-.23-.28-.38-.52-.38h0c-.24,0-.45.15-.52.38l-1.34,4.15h-4.36s0,0,0,0c-.24,0-.45.15-.52.38-.07.23,0,.47.2.61l3.53,2.56-1.36,4.15c-.07.23,0,.47.2.61.1.07.21.1.32.1s.23-.04.32-.11l3.52-2.57,3.52,2.57c.19.14.45.14.64,0,.19-.14.27-.39.2-.61l-1.36-4.15,3.53-2.56c.19-.14.27-.39.2-.61h0Zm-4.7,2.52c-.19.14-.27.39-.2.61l.95,2.92-2.48-1.81c-.1-.07-.21-.11-.32-.11s-.23.04-.32.11l-2.48,1.81.95-2.92c.07-.23,0-.47-.2-.61l-2.48-1.8h3.07s0,0,0,0c.24,0,.45-.15.52-.38l.94-2.92.94,2.92c.07.23.28.38.52.38h3.07s-2.48,1.79-2.48,1.79Z"/>
</svg>