<svg id="Layer_1" enable-background="new 0 0 68 68" viewBox="0 0 68 68" xmlns="http://www.w3.org/2000/svg"><g><path d="m60.4 48.5v-33.8h-5.6c-3.8-6.9-13.7-6.9-17.5 0h-29.7v33.8h-5.6v1c0 4.9 4 8.9 8.9 8.9h46.2c4.9 0 8.9-4 8.9-8.9v-1zm-21.6-25.4c-2.6-5.4 1.4-11.5 7.2-11.5 4.4 0 8 3.6 8 8 0 6-6.4 9.8-11.6 7.1-.1-.1-.3-.1-.5-.1s-3.8.9-4 .9c1-3.7 1.2-3.9.9-4.4zm-29.2-6.4h26.8c-.7 2.2-.6 4.6.4 6.9l-1.3 5c-.2.7.5 1.4 1.2 1.2l5-1.2c7.8 3.7 16.3-3.6 13.9-11.9h2.8v31.8h-19.4v-7.8c0-4.3-3.3-7.8-7.6-8.1 3.5-3.9.8-10-4.4-10-3.3 0-6 2.7-6 6 0 1.6.6 3 1.6 4-4.2.3-7.6 3.8-7.6 8.1v7.8h-5.4zm23.4 24.9c-.6 0-1 .4-1 1v6h-10v-6c0-.6-.4-1-1-1s-1 .4-1 1v6h-3v-7.8c0-3.4 2.8-6.1 6.2-6.1h7.7c3.4 0 6.2 2.8 6.2 6.1v7.8h-3v-6c-.1-.6-.5-1-1.1-1zm-10-13c0-2.2 1.8-4 4-4s4 1.8 4 4-1.8 4-4 4-4-1.8-4-4zm34.1 27.8h-46.2c-3.5 0-6.3-2.6-6.8-5.9h59.9c-.6 3.4-3.4 5.9-6.9 5.9z"/><path d="m42 18.6h8c.6 0 1-.4 1-1s-.4-1-1-1h-8c-.6 0-1 .4-1 1s.4 1 1 1z"/><path d="m42 22.6h8c.6 0 1-.4 1-1s-.4-1-1-1h-8c-.6 0-1 .4-1 1s.4 1 1 1z"/></g></svg>