<svg id="Layer_1" enable-background="new 0 0 500 500" viewBox="0 0 500 500" xmlns="http://www.w3.org/2000/svg"><g><path d="m304.577 112.572h-109.154c-6.744 0-12.232-5.486-12.232-12.232v-39.262c0-4.903 2.91-9.313 7.413-11.245l56.594-24.256c1.789-.769 3.818-.769 5.607 0l56.591 24.256c4.506 1.932 7.416 6.343 7.416 11.245v39.262c0 6.746-5.489 12.232-12.235 12.232zm-107.152-14.234h105.153v-35.94l-52.577-22.537-52.576 22.537z"/><path d="m250.001 215.33h-138.261c-1.325 0-2.622-.37-3.748-1.065l-52.973-32.832c-2.094-1.302-3.368-3.586-3.368-6.051s1.274-4.754 3.368-6.051l52.973-32.827c1.126-.696 2.423-1.066 3.748-1.066h138.261c3.932 0 7.117 3.187 7.117 7.116v65.659c0 3.929-3.185 7.117-7.117 7.117zm-136.233-14.233h129.117v-51.425h-129.117l-41.489 25.71z"/><path d="m222.711 182.499h-41.57c-3.932 0-7.117-3.188-7.117-7.117s3.186-7.116 7.117-7.116h41.57c3.931 0 7.116 3.187 7.116 7.116.001 3.928-3.185 7.117-7.116 7.117z"/><path d="m318.862 284.19h-41.572c-3.932 0-7.117-3.187-7.117-7.116s3.186-7.117 7.117-7.117h41.572c3.932 0 7.117 3.188 7.117 7.117s-3.185 7.116-7.117 7.116z"/><path d="m388.26 317.022h-138.259c-3.931 0-7.117-3.187-7.117-7.117v-65.658c0-3.929 3.186-7.116 7.117-7.116h138.259c1.325 0 2.623.37 3.748 1.065l52.973 32.827c2.094 1.298 3.368 3.586 3.368 6.051s-1.274 4.749-3.368 6.051l-52.973 32.832c-1.126.695-2.423 1.065-3.748 1.065zm-131.142-14.233h129.114l41.489-25.715-41.489-25.711h-129.114z"/><path d="m353.186 475h-206.369c-3.932 0-7.116-3.187-7.116-7.116v-29.208c0-15.207 12.372-27.583 27.582-27.583h165.435c15.211 0 27.585 12.375 27.585 27.583v29.208c-.001 3.929-3.187 7.116-7.117 7.116zm-199.252-14.234h192.135v-22.091c0-7.362-5.989-13.349-13.352-13.349h-165.434c-7.36 0-13.349 5.986-13.349 13.349z"/><path d="m287.309 425.327h-74.617c-3.931 0-7.116-3.188-7.116-7.117v-209.997c0-3.929 3.186-7.116 7.116-7.116h30.193v-51.425h-30.193c-3.931 0-7.116-3.188-7.116-7.117v-37.098c0-3.929 3.186-7.117 7.116-7.117h74.617c3.932 0 7.117 3.188 7.117 7.117v138.791c0 3.929-3.185 7.116-7.117 7.116h-30.19v51.425h30.19c3.932 0 7.117 3.187 7.117 7.117v108.304c0 3.928-3.186 7.117-7.117 7.117zm-67.501-14.234h60.384v-94.07h-30.191c-3.931 0-7.117-3.187-7.117-7.117v-65.658c0-3.929 3.186-7.116 7.117-7.116h30.191v-124.56h-60.384v22.866h30.193c3.932 0 7.117 3.187 7.117 7.116v65.659c0 3.929-3.185 7.116-7.117 7.116h-30.193z"/><path d="m435.689 475h-371.377c-3.932 0-7.117-3.187-7.117-7.116s3.186-7.117 7.117-7.117h371.377c3.931 0 7.116 3.188 7.116 7.117.001 3.929-3.185 7.116-7.116 7.116z"/><path d="m146.817 263.832h-88.05c-3.931 0-7.116-3.187-7.116-7.116s3.185-7.117 7.116-7.117h88.05c3.931 0 7.116 3.188 7.116 7.117.001 3.929-3.185 7.116-7.116 7.116z"/><path d="m146.817 307.858h-88.05c-3.931 0-7.116-3.188-7.116-7.117s3.185-7.116 7.116-7.116h88.05c3.931 0 7.116 3.187 7.116 7.116.001 3.929-3.185 7.117-7.116 7.117z"/><path d="m146.817 351.879h-88.05c-3.931 0-7.116-3.187-7.116-7.116s3.185-7.117 7.116-7.117h88.05c3.931 0 7.116 3.188 7.116 7.117.001 3.928-3.185 7.116-7.116 7.116z"/><path d="m441.233 107.777h-98.067c-3.931 0-7.116-3.188-7.116-7.117s3.185-7.116 7.116-7.116h98.067c3.931 0 7.116 3.187 7.116 7.116s-3.185 7.117-7.116 7.117z"/><path d="m441.233 151.802h-98.067c-3.931 0-7.116-3.187-7.116-7.116s3.185-7.116 7.116-7.116h98.067c3.931 0 7.116 3.187 7.116 7.116s-3.185 7.116-7.116 7.116z"/><path d="m441.233 195.824h-98.067c-3.931 0-7.116-3.187-7.116-7.116s3.185-7.117 7.116-7.117h98.067c3.931 0 7.116 3.188 7.116 7.117s-3.185 7.116-7.116 7.116z"/></g></svg>