<?xml version="1.0" encoding="UTF-8"?>
<svg id="Layer_1" data-name="Layer 1" xmlns="http://www.w3.org/2000/svg" viewBox="0 0 41.85 42.5">
  <defs>
    <style>
      .cls-1 {
        fill: #8a0909;
      }
    </style>
  </defs>
  <g id="g421">
    <g id="g427">
      <path class="cls-1" d="m30.35,42.5c-6.34,0-11.5-5.16-11.5-11.5s5.16-11.5,11.5-11.5,11.5,5.16,11.5,11.5c0,2.61-.9,5.16-2.52,7.19l-1.44-1.16c1.38-1.73,2.12-3.81,2.12-6.03,0-5.32-4.33-9.65-9.65-9.65s-9.65,4.33-9.65,9.65,4.33,9.65,9.65,9.65c2.04,0,3.99-.63,5.63-1.82l1.08,1.5c-1.96,1.42-4.29,2.17-6.72,2.17Z"/>
    </g>
    <g id="g431">
      <path class="cls-1" d="m30.35,39.33c-4.59,0-8.33-3.74-8.33-8.33s3.74-8.33,8.33-8.33,8.33,3.74,8.33,8.33-3.74,8.33-8.33,8.33Zm0-14.81c-3.57,0-6.48,2.91-6.48,6.48s2.91,6.48,6.48,6.48,6.48-2.91,6.48-6.48-2.91-6.48-6.48-6.48Z"/>
    </g>
    <g id="g435">
      <path class="cls-1" d="m8.13,8.77c-1.64,0-2.98-1.33-2.98-2.98v-2.81c0-1.64,1.33-2.98,2.98-2.98s2.98,1.33,2.98,2.98v2.81c0,1.64-1.33,2.98-2.98,2.98Zm0-6.92c-.62,0-1.12.5-1.12,1.12v2.81c0,.62.5,1.12,1.12,1.12s1.12-.5,1.12-1.12v-2.81c0-.62-.5-1.12-1.12-1.12Z"/>
    </g>
    <g id="g439">
      <path class="cls-1" d="m18.08,8.77c-1.64,0-2.98-1.33-2.98-2.98v-2.81c0-1.64,1.33-2.98,2.98-2.98s2.98,1.33,2.98,2.98v2.81c0,1.64-1.33,2.98-2.98,2.98Zm0-6.92c-.62,0-1.12.5-1.12,1.12v2.81c0,.62.5,1.12,1.12,1.12s1.12-.5,1.12-1.12v-2.81c0-.62-.5-1.12-1.12-1.12Z"/>
    </g>
    <g id="g443">
      <path class="cls-1" d="m28.03,8.77c-1.64,0-2.98-1.33-2.98-2.98v-2.81c0-1.64,1.34-2.98,2.98-2.98s2.98,1.33,2.98,2.98v2.81c0,1.64-1.33,2.98-2.98,2.98Zm0-6.92c-.62,0-1.12.5-1.12,1.12v2.81c0,.62.5,1.12,1.12,1.12s1.12-.5,1.12-1.12v-2.81c0-.62-.5-1.12-1.12-1.12Z"/>
    </g>
    <g id="g447">
      <path class="cls-1" d="m21.11,37.06H5.86c-3.23,0-5.86-2.63-5.86-5.86V8.28h1.85v22.93c0,2.21,1.8,4.01,4.01,4.01h15.26v1.85Z"/>
    </g>
    <g id="g451">
      <path class="cls-1" d="m2.15,5.93l-1.63-.88c.76-1.4,2.22-2.27,3.82-2.27h1.73v1.85h-1.73c-.91,0-1.75.5-2.19,1.3Z"/>
    </g>
    <g id="g455">
      <rect class="cls-1" x="10.18" y="2.77" width="5.85" height="1.85"/>
    </g>
    <g id="g459">
      <rect class="cls-1" x="20.13" y="2.77" width="5.85" height="1.85"/>
    </g>
    <g id="g463">
      <path class="cls-1" d="m36.16,21.62h-1.85V7.11c0-1.37-1.12-2.49-2.49-2.49h-1.73v-1.85h1.73c2.39,0,4.34,1.95,4.34,4.34v14.5Z"/>
    </g>
    <g id="g467">
      <rect class="cls-1" x=".93" y="11.06" width="34.31" height="1.85"/>
    </g>
    <g id="g471">
      <path class="cls-1" d="m19.63,23.07h-3.1c-1.4,0-2.54-1.14-2.54-2.54v-3.1c0-1.4,1.14-2.54,2.54-2.54h3.1c1.4,0,2.54,1.14,2.54,2.54v3.1c0,1.4-1.14,2.54-2.54,2.54Zm-3.1-6.33c-.38,0-.69.31-.69.69v3.1c0,.38.31.69.69.69h3.1c.38,0,.69-.31.69-.69v-3.1c0-.38-.31-.69-.69-.69h-3.1Z"/>
    </g>
    <g id="g475">
      <path class="cls-1" d="m9.47,23.07h-3.1c-1.4,0-2.54-1.14-2.54-2.54v-3.1c0-1.4,1.14-2.54,2.54-2.54h3.1c1.4,0,2.54,1.14,2.54,2.54v3.1c0,1.4-1.14,2.54-2.54,2.54Zm-3.1-6.33c-.38,0-.69.31-.69.69v3.1c0,.38.31.69.69.69h3.1c.38,0,.69-.31.69-.69v-3.1c0-.38-.31-.69-.69-.69h-3.1Z"/>
    </g>
    <g id="g479">
      <path class="cls-1" d="m9.47,33.23h-3.1c-1.4,0-2.54-1.14-2.54-2.54v-3.1c0-1.4,1.14-2.54,2.54-2.54h3.1c1.4,0,2.54,1.14,2.54,2.54v3.1c0,1.4-1.14,2.54-2.54,2.54Zm-3.1-6.33c-.38,0-.69.31-.69.69v3.1c0,.38.31.69.69.69h3.1c.38,0,.69-.31.69-.69v-3.1c0-.38-.31-.69-.69-.69h-3.1Z"/>
    </g>
    <g id="g483">
      <path class="cls-1" d="m24.8,22.23c-.42-.47-.65-1.07-.65-1.7v-3.1c0-1.4,1.14-2.54,2.54-2.54h3.1c1.4,0,2.54,1.14,2.54,2.54v3.05h-1.85v-3.05c0-.38-.31-.69-.69-.69h-3.1c-.38,0-.69.31-.69.69v3.1c0,.17.06.33.18.46l-1.38,1.24Z"/>
    </g>
    <g id="g487">
      <path class="cls-1" d="m19.63,33.23h-3.1c-1.4,0-2.54-1.14-2.54-2.54v-3.1c0-1.4,1.14-2.54,2.54-2.54h3.1c.7,0,1.35.28,1.83.78l-1.34,1.28c-.13-.14-.31-.21-.5-.21h-3.1c-.38,0-.69.31-.69.69v3.1c0,.38.31.69.69.69h3.1l.36,1.82c-.12.02-.24.03-.36.03Z"/>
    </g>
    <g id="g491">
      <polygon class="cls-1" points="32.75 31.92 29.97 31.92 27.1 29.05 28.41 27.74 30.74 30.07 32.75 30.07 32.75 31.92"/>
    </g>
  </g>
</svg>