<?xml version="1.0" encoding="UTF-8"?>
<svg id="Layer_1" data-name="Layer 1" xmlns="http://www.w3.org/2000/svg" viewBox="0 0 40 45.73">
  <defs>
    <style>
      .cls-1 {
        fill: #8a0909;
      }
    </style>
  </defs>
  <path class="cls-1" d="m5.53,14.45h5.87c.81,0,1.47-.66,1.47-1.47v-.59c0-1.58-.85-3.05-2.23-3.83.96-1.2.76-2.95-.44-3.9-1.2-.96-2.95-.76-3.9.44-.81,1.01-.81,2.45,0,3.46-1.38.78-2.23,2.24-2.23,3.83v.59c0,.81.66,1.47,1.47,1.47Zm1.79-7.61c0-.63.51-1.15,1.15-1.15.63,0,1.15.51,1.15,1.15,0,.63-.51,1.15-1.15,1.15-.63,0-1.15-.51-1.15-1.15Zm-1.63,5.55c0-1.53,1.25-2.77,2.78-2.76,1.52,0,2.76,1.24,2.76,2.76v.42h-5.55v-.42Zm31.48,13.19c-.48,0-.94.12-1.36.35-.27-.77-.87-1.39-1.63-1.68v-15.64c0-.17-.01-.34-.04-.5-.11-.88-.51-1.7-1.14-2.33l-4.6-4.6c-.62-.62-1.43-1.02-2.31-1.13-.17-.02-.35-.04-.52-.03H4.01C1.8,0,0,1.79,0,4v35.79c0,2,1.62,3.62,3.62,3.62h18.34v.56c0,.97.79,1.76,1.76,1.76h13c.97,0,1.76-.79,1.76-1.76v-.41c0-.42.18-.81.49-1.09.66-.59,1.04-1.43,1.04-2.31v-11.76c0-1.56-1.27-2.83-2.83-2.83Zm-5.32-18.66c.13.14.25.29.35.46h-4.08c-.73,0-1.32-.59-1.32-1.32V1.98c.17.1.32.21.46.35l4.59,4.59ZM1.63,39.79V4c0-1.31,1.07-2.37,2.38-2.37h21.16v4.43c0,1.63,1.32,2.95,2.95,2.95h4.43v15.1c-.26.06-.52.15-.75.28-.52-1.46-2.13-2.23-3.59-1.71-.09.03-.17.07-.26.11v-2.2h1.35c.45,0,.82-.37.82-.82s-.37-.82-.82-.82h-1.5c-.5-1.48-2.1-2.27-3.58-1.78-.84.28-1.5.94-1.78,1.78h-11.07c-.45,0-.82.37-.82.82s.37.82.82.82h10.92v6.1h-10.92c-.45,0-.82.37-.82.82s.37.82.82.82h10.92v4.48l-2.23-1.65c-1.33-.99-3.21-.7-4.2.63-.1.13-.18.27-.26.42-.22.42-.33.89-.33,1.37,0,.29.04.58.13.86h-4.02c-.45,0-.82.37-.82.82s.37.82.82.82h5.2l3.34,2.6c.99.77,1.67,1.87,1.92,3.11H3.62c-1.1,0-1.99-.89-1.99-1.99Zm36.73.37c0,.42-.18.82-.5,1.09-.66.59-1.03,1.43-1.03,2.31v.41c0,.07-.06.12-.12.12h-13c-.07,0-.12-.06-.12-.12v-1.13c0-.09,0-.17,0-.25h0s0-.02,0-.03c-.08-2.03-1.05-3.93-2.66-5.18l-3.48-2.7h0s-.03-.03-.05-.05c-.31-.26-.49-.64-.49-1.05,0-.22.05-.43.15-.62.34-.67,1.17-.94,1.84-.6.07.03.13.07.19.12l2.99,2.21c.52.38,1.24.26,1.62-.25.15-.2.22-.44.22-.69v-13.88s0-.04,0-.06c.01-.3.13-.58.34-.78.22-.23.53-.35.85-.35.64,0,1.16.5,1.19,1.14,0,.02,0,.04,0,.06v13.73c0,.45.37.82.82.82s.82-.37.82-.82v-8.25c0-.66.53-1.19,1.18-1.2s1.19.53,1.2,1.18c0,0,0,0,0,.01v8.25c0,.45.37.82.82.82s.82-.37.82-.82v-6.72c0-.66.54-1.19,1.19-1.19.32,0,.62.12.84.35.22.23.35.53.35.85v8.25c0,.45.37.82.82.82s.82-.37.82-.82v-6.72c0-.66.53-1.19,1.19-1.19.66,0,1.19.53,1.19,1.19h0s0,11.76,0,11.76ZM14.64,13.24c0-.45.37-.82.82-.82h13.84c.45,0,.82.37.82.82s-.37.82-.82.82h-13.84c-.45,0-.82-.37-.82-.82Zm0-4.44c0-.45.37-.82.82-.82h6.92c.45,0,.82.37.82.82s-.37.82-.82.82h-6.92c-.45,0-.82-.37-.82-.82Zm-6.2,8.23h-3.28c-.61,0-1.1.49-1.1,1.1v3.28c0,.61.49,1.1,1.1,1.1h3.28c.61,0,1.1-.49,1.1-1.1v-3.28c0-.61-.49-1.1-1.1-1.1Zm-.53,3.85h-2.21v-2.21h2.21v2.21Zm.53,3.89h-3.28c-.61,0-1.1.49-1.1,1.1v3.28c0,.61.49,1.1,1.1,1.1h3.28c.61,0,1.1-.49,1.1-1.1v-3.28c0-.61-.49-1.1-1.1-1.1h0Zm-.53,3.85h-2.21v-2.22h2.21v2.22Zm.53,3.89h-3.28c-.61,0-1.1.49-1.1,1.1v3.28c0,.61.49,1.1,1.1,1.1h3.28c.61,0,1.1-.49,1.1-1.1v-3.28c0-.61-.49-1.1-1.1-1.1h0Zm-.53,3.85h-2.21v-2.22h2.21v2.22Z"/>
</svg>