<svg height="451pt" viewBox="0 0 451 451.06667" width="451pt" xmlns="http://www.w3.org/2000/svg"><path d="m290.167969 352h-9.867188c-100 0-181.335937-81.332031-181.335937-181.332031v-9.867188c0-17.066406 6.667968-33.199219 18.800781-45.199219l8.800781-8.800781c13.734375-13.734375 37.734375-13.734375 51.46875 0l27.597656 27.597657c6.933594 6.933593 10.667969 16 10.667969 25.734374 0 9.601563-3.867187 18.933594-10.667969 25.734376l-2.53125 2.53125c-5.335937 5.335937-8.136718 12.269531-8.136718 19.734374 0 7.46875 2.933594 14.535157 8.136718 19.734376l20 20c5.199219 5.199218 12.398438 8.132812 19.730469 8.132812 7.335938 0 14.535157-2.933594 19.734375-8.132812l2.535156-2.535157c13.730469-13.730469 37.730469-13.730469 51.464844 0l27.601563 27.601563c6.933593 6.933594 10.664062 16 10.664062 25.734375 0 9.730469-3.730469 18.933593-10.664062 25.730469l-8.800781 8.800781c-12 12.132812-28 18.800781-45.199219 18.800781zm-137.867188-234.667969c-4 0-7.867187 1.601563-10.667969 4.402344l-8.800781 8.800781c-8 8-12.53125 18.796875-12.53125 30.132813v9.867187c0 88.265625 71.734375 160 160 160h9.867188c11.332031 0 22.132812-4.402344 30.132812-12.535156l8.800781-8.800781c2.796876-2.800781 4.398438-6.664063 4.398438-10.664063s-1.601562-7.867187-4.398438-10.667968l-27.46875-27.46875c-5.734374-5.730469-15.597656-5.730469-21.332031 0l-2.535156 2.535156c-9.066406 9.066406-21.867187 14.398437-34.800781 14.398437-13.199219 0-25.597656-5.066406-34.796875-14.398437l-20-20c-9.335938-9.332032-14.402344-21.734375-14.402344-34.800782 0-13.199218 5.066406-25.597656 14.402344-34.800781l2.53125-2.53125c2.800781-2.800781 4.402343-6.667969 4.402343-10.667969s-1.601562-7.867187-4.402343-10.667968l-27.734375-27.730469c-2.796875-2.800781-6.664063-4.402344-10.664063-4.402344zm0 0"/><path d="m.0351562 451.066406 25.9999998-127.867187c-15.335937-31.066407-23.070312-64.398438-23.070312-99.199219 0-123.464844 100.535156-224 224-224 123.46875 0 224 100.535156 224 224s-100.53125 224-224 224c-34.796875 0-68.132813-7.734375-99.066406-23.066406zm130.9296878-48.53125 3.335937 1.730469c28.800781 14.800781 60 22.402344 92.664063 22.402344 111.734375 0 202.667968-90.933594 202.667968-202.667969s-90.933593-202.667969-202.667968-202.667969c-111.730469 0-202.664063 90.933594-202.664063 202.667969 0 32.667969 7.464844 63.867188 22.398438 92.667969l1.734375 3.332031-21.066406 103.601562zm0 0"/></svg>